<?xml version="1.0" encoding="UTF-8"?>
<svg id="Capa_2" data-name="Capa 2" xmlns="http://www.w3.org/2000/svg" version="1.1" viewBox="0 0 558.4 558.3">
  <defs>
    <style>
      .cls-1 {
        fill: #3f02a8;
        stroke-width: 0px;
      }
    </style>
  </defs>
  <g id="Capa_1-2" data-name="Capa 1-2">
    <g>
      <path class="cls-1" d="M40.3,294.6c.5,1.1,1,2.2,1.5,3.4,0,.7.2,1.2.8,1.5,2,3.3,1.7,6.7.4,10.1-.9,2.3-2.7,3.9-4.9,5.1-.7-.2-1.2,0-1.3.8-2,.5-3.8,1-5.9.3-1.4-.4-2.7-1-3.8-1.8-1-1-1.9-1.9-2.9-2.9-.2-.3-.4-.6-.6-.9,0-.6,0-1.1-.6-1.4-3-5.6-5.5-11.5-8-17.3.3-.8,0-1.2-.6-1.6-.5-1.4-1-2.7-1.6-4.1.2-1.2-.2-2.1-1-3-1.1-2.7-1.8-5.5-2.7-8.2-1.2-4.1-2.6-8.2-3.5-12.4-.8-3.7-1.5-7.4-2.2-11.1-.2-.8-.4-1.6-.5-2.4,0-.6-.2-1.2-.2-1.8-.4-2.9-.9-5.9-1.2-8.8-.3-2.3-.6-4.7-.9-7-.1-1.2,0-2.5,0-3.7-.8-7.7-.3-15.3-.4-23,0-2.9.5-5.9.7-8.8.1-3.3.6-6.6,1-9.8.3-2.4.5-4.9.9-7.3.7-3.8,1.4-7.6,2.3-11.4.6-2.9,1.4-5.7,2.1-8.6.6-.4.8-1,.5-1.7.4-1.5.8-3,1.3-4.5.6-.4.8-1,.4-1.7,1.1-4.4,2.8-8.6,4.4-12.9.6-.5.8-1,.4-1.7,1.1-2.4,2.1-4.8,3.1-7.1.6-.3.7-.9.7-1.6.5-1.1,1-2.2,1.4-3.3.7-.3.9-.8.8-1.6,1.2-2.4,2.4-4.8,3.6-7.3.7-.3,1-.8.8-1.6.9-1.6,1.8-3.1,2.6-4.7.8-.2,1.2-.7.8-1.5,2.9-4.6,5.8-9.3,8.7-13.9.8-.3,1-1,1.2-1.7,6.1-8.7,12.8-16.9,20.1-24.6,7.6-8,15.6-15.5,24.3-22.3,8.1-6.3,16.7-12,25.6-17.2.9.3,1.5-.4,2.1-.8.5,0,.9-.2.9-.8.9-.5,1.8-1,2.7-1.5,1.4.1,2.5-.6,3.3-1.7.7-.3,1.4-.6,2.1-.9,2.5-.8,4.8-1.9,6.9-3.3.5-.2,1-.5,1.4-.7.7,0,1.2,0,1.6-.7.5-.2,1-.4,1.5-.6.7,0,1.2,0,1.6-.7,1.6-.6,3.2-1.3,4.9-2,1.7-.7,3.4-1.3,5.2-1.9,1.6-.6,3.3-1.4,5-1.7,1.7-.3,3.2-1.3,4.9-1.5.6.5,1.2,0,1.7-.2.9-.3,2,0,2.7-.9,1.1-.3,2.1-.7,3.1-1,.7.2,1.2.1,1.7-.4,1.6-.4,3.2-.7,4.9-1.1.4.3.6.3.9-.1,4.4-1,8.8-1.9,13.2-2.4,2.6-.3,5.2-.9,7.8-1.3,1.3-.2,2.6-.3,4-.4,2.5-.2,4.9-.3,7.4-.4,1.6-.1,3.3-.4,4.9-.4,3.2,0,6.4,0,9.6-.1,2.4,0,4.8-.2,7.1,0,4.8.4,9.6.7,14.5,1.1,8.8.8,17.4,2.5,26,4.2,2.7.6,5.4,1.4,8.1,2.1.5.6,1,.8,1.7.5,5.7,1.7,11.4,3.4,16.9,5.6,1.3.5,2.7,1.1,4,1.6.4.6,1,.7,1.6.6.9.4,1.9.8,2.8,1.2.3.5.8.7,1.4.5,1.4.6,2.8,1.3,4.1,1.9,1.6.7,3.1,1.5,4.7,2.2.8,1.1,1.9,1.7,3.3,1.6.9.5,1.8,1,2.8,1.5.3.8.4.9,1.3.6,1.4.8,2.8,1.6,4.2,2.4.3.6.7,1.1,1.5.9.8.5,1.7,1,2.5,1.4l1.4,1c.9.5,1.7,1,2.6,1.5.4.2.8.4,1.2.6,2.4,1.7,4.8,3.4,7.1,5,7,4.8,13.8,10.1,20.1,15.9,5.3,4.9,10.4,9.9,15.5,15,22.1,22.1,44.2,44.2,66.3,66.3,1.2,1.2,2.1,2.5,3.2,3.8,0,.7,0,1.2.8,1.5,1.1,2.9.8,5.8-.2,8.6-.6.3-1,.7-.9,1.4-1.1,1.8-2.7,2.9-4.5,3.8-.7-.3-1.2-.1-1.7.5-2.3.8-4.5.5-6.7-.4-.5-.2-1-.5-1.5-.8-1.3-1.1-2.6-2-3.8-3.2-24.4-24.3-48.7-48.7-73.1-73.1-3.2-3.2-6.5-6.2-9.8-9.1-6.4-5.8-13.4-10.9-20.6-15.6-.3-.7-1-1-1.7-1.1-2.5-1.6-5-3.1-7.5-4.7-1-1.1-2.3-1.8-3.8-2-.8-.5-1.7-.9-2.5-1.3-.4-.3-.8-.5-1.2-.8-1.6-.9-3.2-1.7-4.8-2.6-.2-.1-.6,0-.9,0-1.1-.5-2.2-1-3.2-1.6-.4-.7-.8-1-1.6-.7-8.2-3.5-16.5-6.8-25.2-9-.2,0-.4-.2-.6-.3-.4-.6-1-.8-1.7-.5-5.7-1.3-11.4-2.6-17.2-3.8-1.5-.3-3-.5-4.6-.7-.6,0-1.2-.1-1.8-.2-3.7-.5-7.4-.9-11-1.2-2.9-.3-5.8,0-8.7-.4-3.1-.4-6.2-.3-9.3-.3-2.2,0-4.3.3-6.5.3-2.1,0-4.1-.2-6.2.4-3.2-.4-6.3.5-9.5.9-4.8.5-9.6,1.5-14.4,2.4-1.3.2-2.6.6-3.9,1-.3,0-.6.1-.9.1-2.1.5-4.1,1-6.2,1.5-.7-.4-1.2-.2-1.7.4-.8.2-1.6.5-2.3.7-.7-.4-1.3-.2-1.7.4-1.4.4-2.8.8-4.1,1.3-3.5,1.3-7,2.5-10.4,3.9-3.6,1.5-7.2,2.9-10.8,4.5-.8-.3-1.3,0-1.6.7-2.4,1.2-4.8,2.5-7.3,3.7-.7-.2-1.2-.1-1.3.7-4.1,2.4-8.2,4.8-12.2,7.2-.8,0-1.5.3-1.8,1.2-.4.3-.9.7-1.3,1-.6,0-1,.2-1.2.7-2.7,2-5.4,4-8.1,5.9-.9.3-1.7.7-2.1,1.5-3.6,3-7.2,6-10.7,9-6.2,5.4-11.8,11.4-17.1,17.6-3.6,4.3-6.9,8.8-10.3,13.2-.7.9-1.3,1.8-2,2.8-.8.3-1.1,1-1.1,1.8-1.2,1.9-2.5,3.9-3.7,5.8-.7.3-.9.8-.8,1.5-1,1.7-2,3.3-3.1,5-.8.3-1,.8-.7,1.6-.8,1.4-1.5,2.8-2.3,4.2-1.5,1.4-2.4,3.1-2.5,5.1-1.6,3.6-3.2,7.2-4.8,10.8-.2.4-.4.9-.6,1.3-.8,2.4-1.7,4.7-2.5,7.1-.6.4-.7,1-.5,1.7-.7,2.1-1.4,4.2-2.1,6.3-.6.4-.7,1-.4,1.7-.4,1.5-.9,3-1.3,4.5-.6.4-.8,1-.5,1.7-1,3-1.5,6.2-2.2,9.3-.3,1.2-.5,2.4-.7,3.6-.4.2-.5.5-.1.9-.2,1.5-.4,3-.6,4.5-.5.5-.6,1.1-.3,1.7-.7,2.1-.6,4.2-.9,6.4-.4,2.7-.7,5.5-.9,8.2-.1,1.9.1,3.8-.2,5.6-.2,1.1,0,2.2-.1,3.3-.7.8-.5,1.7-.2,2.6-.3,4.6.4,9.1.5,13.7-.4.9-.6,1.8.2,2.6.4,3.6.7,7.1,1.2,10.7.4,2.9.9,5.8,1.3,8.8-.5.7-.2,1.2.4,1.7.1.6.2,1.2.4,1.7.2.8.3,1.5.5,2.3-.2.6-.4,1.2.3,1.7.6,2.5,1.2,5,1.9,7.5,1.4,5.3,3,10.5,4.9,15.6-.4,1.2.2,2.2,1.1,3,.4.9.7,1.9,1.1,2.8-.2.7,0,1.3.7,1.6.2.5.4,1,.6,1.5-.2.7,0,1.3.6,1.6l.7,1.5c0,.7,0,1.3.7,1.6.3.6.6,1.3.9,1.9.3.5.5,1,.8,1.6h0Z"/>
      <path class="cls-1" d="M249.5,143.1c1.6,1,3.2,1.9,4.9,2.9.3,1.1.5,1.2,1.7,1,5.1,3.2,9.8,7,14.1,11.3,23.6,23.6,47.2,47.2,70.9,70.8,1.3,1.3,2.6,2.7,3.4,4.4-.3,1.2.2,2.1.9,3,0,1.2.4,2.4-.2,3.5-.7.5-.5,1.1-.2,1.7-2.1,5-5.8,7.4-11.2,7.3-.7,0-1.4-.2-2.1-.4-2.2-.7-4.1-2-5.8-3.6-.6-.7-1.3-1.3-2-2-22.6-22.6-45.3-45.2-67.9-67.9-3.1-3.1-6.3-6.1-9.8-8.7-.2-1-.8-1.3-1.7-1.1-.3-.2-.6-.4-.9-.6-.2-.8-.4-.9-1.3-.7-5.3-3.1-11-5.1-17-6.6-.6-.1-1-.9-1.7-.4-2.9-.3-5.9-.8-8.8-.9-5.1-.3-10.1.5-15.1,1.5-3.5.7-6.9,1.9-10.1,3.4-1.9.3-3.5,1.1-4.9,2.4l-.9.5c-.8-.2-1.2.2-1.4.9-7.9,4.9-13.9,11.6-18.7,19.5-.8.2-1.2.7-.8,1.5-2.2,3.9-3.7,8.2-5,12.5-.7.5-.5,1.1-.2,1.7-.9,2.3-1.1,4.8-1.3,7.1-.2,3.9-.1,7.8.1,11.7.1,2.3.4,4.6,1.2,6.8-.4.7-.2,1.2.4,1.7.7,2.1,1.3,4.2,2,6.4,0,.7,0,1.2.7,1.6,1,1.9,1.9,3.8,2.9,5.7,0,.6.1,1.1.7,1.3.2.3.4.6.6.9,0,.8.3,1.4,1.1,1.8,0,.1.1.2.2.4.2.4.5.7.7,1.1.2.5.4,1,1,1.1,1.8,2,3.5,4.1,5.4,6,43,43.1,86.1,86.1,129.2,129.2s1.1,1.2,1.8,1.8c2.9,2.5,3.8,5.8,3.7,9.5,0,.8-.3,1.6-.5,2.3-.5.6-1.1,1.2-.9,2.1-1.2,1.8-2.8,3.3-4.8,4.3-2.7,1.3-5.4,1.5-8.2.4-.5-.2-1-.5-1.5-.7-1.4-1.1-2.8-2.2-4-3.4-43.3-43.2-86.5-86.5-129.8-129.7-3.2-3.2-6.3-6.7-8.9-10.4-.4-.5-.8-1-1.2-1.4-.2-.4-.4-.8-.7-1.2-4.8-7.3-8.4-15.1-10.6-23.6.3-.7.3-1.2-.4-1.7-.1-.6-.3-1.2-.4-1.8.5-.7-.3-1.1-.4-1.7-.1-.4-.2-.9-.3-1.3,0-.6-.1-1.2-.2-1.8,0-.4-.2-.9-.3-1.4,0-.6-.1-1.2-.1-1.8-.4-3.6-.6-7.2-.4-10.8.2-5.1.7-10.2,1.9-15.2.7-3.2,1.9-6.3,2.9-9.5.6-.4.8-.9.6-1.6.6-1.5,1.3-3.1,2-4.6,1.3-2.3,2.5-4.5,3.8-6.8,0-.1,0-.4,0-.6l2.4-3.5c.9,0,1-.4.8-1.1,5.2-7.8,11.8-14.2,19.5-19.6.8-.5,1.6-1,2.3-1.6.7.2,1.2.1,1.2-.7.3-.2.6-.4,1-.6,1.7-.1,2.6-.6,3.6-1.9,5.2-2.7,10.5-4.9,16.2-6.2,2.9-.6,5.7-1.2,8.6-1.8,4.6-.9,9.2-.7,13.8-.8,5.2-.2,10.2.8,15.3,1.6.4,0,.8.2,1.2.4.5.7,1.1.5,1.7.3,2.4.8,4.8,1.6,7.1,2.3.4.7,1.1.5,1.7.5.5.2.9.4,1.4.6.4.6.9.8,1.6.6.5.2,1,.5,1.5.7,1,.9,1.9,1.7,3.4,1.6h0Z"/>
      <path class="cls-1" d="M49.4,173.1c1.7-6.3,3.6-12.5,5.8-18.7,1-1.2,1.7-2.6,1.6-4.2.9-2.1,1.8-4.3,2.8-6.4.6-.3,1-.8.7-1.6,1.8-3.6,3.7-7.2,5.5-10.8.7-.3.9-.8.9-1.5,2.7-4.8,5.7-9.4,8.8-14,4.1-5.9,8.7-11.4,13.5-16.8,3.5-4,7.2-7.8,11.3-11.2,4.1-3.4,8.2-6.8,12.2-10.2,1-.9,2.2-1.6,3.3-2.4,5.2-3.6,12.8-2,15.8,3.8.7,1.4,1.1,2.9,1.1,4.4,0,.9,0,1.9,0,2.8-.4.5-.8,1-.5,1.7-.8,2.4-2.5,4.1-4.5,5.6-.7.6-1.5,1-2.3,1.6-.3.3-.6.5-1,.8l-3,2.3c-.3.3-.6.6-.9.8-5.7,4.6-11,9.6-15.8,15-3.5,3.9-6.6,8-9.9,12.1-.8.3-1,1-1.2,1.7-3.9,5.4-7.3,11-10.3,16.9-1.5,1.5-2,3.5-2.8,5.3-.6,1.1-1.6,2-1.3,3.4-.2.5-.4,1-.7,1.5-.7.3-.9.9-.7,1.6-.2.5-.4,1-.6,1.5-.7.3-1,.9-.7,1.6-1.6,4.6-3.1,9.2-4.7,13.8-.7.5-.5,1.1-.3,1.7-.5,1.8-1,3.6-1.5,5.4-.7.5-.5,1.1-.2,1.7-.9,2.9-1.3,5.9-1.7,8.9-.3,2-.7,4-.9,6-.2,3.4-.3,6.8-.5,10.1,0,.5-.1,1-.2,1.5-.4.3-.4.6,0,.9v1.8c-.4.3-.4.6,0,.9.1,3,.3,6,.3,9,0,1.2.2,2.2.5,3.3,0,.6.1,1.2.2,1.8-.5,1.1,0,2.1.3,3.1-.3.6-.3,1.2,0,1.8,0,.3,0,.6,0,.9-.4.8.3,1.5.4,2.2.2,1,.3,2.1.5,3.1-.4.8.3,1.5.4,2.2.3,1.9.4,3.9,1.3,5.7-.3.3-.3.6,0,.9.4,1.7.9,3.4,1.3,5,.3,1.3.7,2.6,1.1,3.9-.2,1.2.1,2.2.9,3,2,6,4.3,11.9,7.1,17.6.5,1.1,1.1,2.2,1.7,3.3.1,1.3.5,2.5,1.7,3.3.9,1.6,1.8,3.2,2.7,4.8-.3.8,0,1.3.9,1.5,2.8,4.1,5.6,8.2,8.3,12.2.2,1,.5,1.9,1.7,2.1,4.8,6.3,10.3,12,15.9,17.6,40.7,40.7,81.5,81.5,122.2,122.2.7.7,1.3,1.3,2,2,3.9,3.7,4.4,11-.2,15.4-.4.4-1,.8-1.5,1.2-1.3,0-2.4.7-3.4,1.5-1.6.5-3.6.5-5.4,0-.5-.5-1-.8-1.7-.5-1.6-.8-2.9-1.9-4.2-3.2-43.4-43.4-86.8-86.8-130.2-130.2-4.3-4.4-8.2-9.1-12-14-3.6-4.6-6.8-9.4-9.9-14.4.3-.7.1-1.2-.7-1.3-.2-.3-.4-.6-.6-.9.2-.7,0-1.2-.7-1.3-.5-.9-1.1-1.8-1.6-2.6-.3-2.2-1.5-3.9-2.9-5.5-.6-1.3-1.2-2.5-1.8-3.8,0-.7-.2-1.2-.8-1.5l-4.1-9.5-.6-1.6c-.9-2.5-1.8-5.1-2.7-7.6.4-.7.2-1.3-.4-1.7-.6-1.9-1.2-3.9-1.8-5.8.3-.7.2-1.2-.4-1.7-1.2-4.5-2.4-9.1-3-13.7-.3-2.2-.8-4.4-1.1-6.7,0-.6-.1-1.2-.2-1.8,0-.7-.2-1.5-.3-2.2,0-.6.6-1.2,0-1.8-.1-.7-.2-1.5-.3-2.2.4-.9.3-1.8-.2-2.6-.2-2.1-.3-4.1-.5-6.2,0-.6,0-1.2,0-1.9,0-2.5,0-5,0-7.5,0-2.6.4-5.2.5-7.7.1-4.6.7-9.2,1.3-13.8.5-4,1.6-8,2.4-12,.1-.6.2-1.2.3-1.8,0-.3.1-.6.2-.9h0Z"/>
      <path class="cls-1" d="M489.6,321c-.6-3-1.2-5.9-1.9-8.9-.4-1.8-.9-3.5-1.3-5.3.4-.7-.3-1.1-.5-1.7-.3-1-.7-2.1-1-3.1.2-.6.4-1.3-.4-1.7-.3-.8-.6-1.5-.9-2.3.2-.6.4-1.3-.5-1.7-.7-1.8-1.4-3.6-2-5.4.3-.8,0-1.3-.7-1.6-.2-.5-.4-1-.5-1.5.2-.7,0-1.3-.7-1.6-.2-.5-.5-1-.7-1.4-.5-2.1-1.6-4.5-3.3-6.9-.5-.8-.9-1.7-1.4-2.5-.1-1.3-.9-2.3-1.8-3.2l-2.3-3.6c-.2-.4-.5-.8-.7-1.2-4.8-7.7-10.2-15-16.5-21.5-4.3-4.5-8.7-9-13.1-13.4-40.9-41-81.9-81.9-122.8-122.8-9.2-9.2-19.3-17.1-30.6-23.5-.5-.3-1-.5-1.6-.8-2.1-1.2-4.3-2.3-6.4-3.4-.3-.7-.9-.9-1.5-.8-.5-.2-1-.5-1.5-.7-.4-.7-.9-.8-1.6-.7-1.1-.5-2.2-1-3.2-1.5-.4-.7-.9-.9-1.6-.6l-1.5-.6c-.3-.7-.9-1-1.6-.7-3.1-1.1-6.2-2.2-9.3-3.2-1.9-.6-3.9-1.1-5.9-1.6-.6-.2-.9-1-1.7-.5-.2,0-.3,0-.5,0-.6-.2-.9-.9-1.7-.5-1.4-.3-2.7-.5-4.1-.8-.3-.1-.5-.3-.8-.4-1.3-.3-2.6-1.2-4-.4h0c-.7-.2-1.3-.9-2.1-.5-3.4-.5-5.9-2.4-7.7-5.2.3-.8,0-1.3-.8-1.6-.3-1.1-.8-2.3-.9-3.4-.1-.9.2-1.9.4-2.9.2-.6.4-1.1.6-1.7,1.1-2.5,2.6-4.5,5.1-5.6,1.9-.9,3.9-1.5,6-1.2,1.9.2,3.9.6,5.8,1,.5.5,1,.8,1.7.4,4,.9,8,1.9,12,2.8.7.5,1.3,1,2.2.6,2.4.7,4.8,1.5,7.1,2.2.4.7.9,1.1,1.7.5.8.3,1.5.6,2.3.9.8.9,1.8,1.2,3,1,.5.2,1,.4,1.5.6.2.6.7.7,1.3.7.5.3,1,.8,1.6.4l1.5.6c.3.7.8,1,1.6.7,2.9,1.4,5.8,2.8,8.6,4.2.3.6.8,1,1.5.8.6.3,1.3.7,1.9,1.1.2.7.9.8,1.5.8,3.1,1.8,6.1,3.7,9.2,5.5.4.7,1,1,1.8,1,2.5,1.8,5,3.7,7.5,5.5.6,1.2,1.6,1.8,2.9,2.1,6.1,4.8,11.8,9.9,17.2,15.4,43.3,43.3,86.7,86.7,130,130,5.3,5.3,10.3,10.9,14.9,16.9,0,1.1.6,1.8,1.6,2.3,6.1,7.9,11.2,16.5,15.8,25.4.3.6.6,1.1.9,1.7-.3.8.1,1.2.7,1.5.5,1.1,1,2.2,1.5,3.4-.4.8-.1,1.3.7,1.6.6,1.5,1.3,3,1.9,4.6-.3.7,0,1.3.6,1.6.3.9.7,1.9,1,2.8.4,1.4.9,2.9,1.3,4.3.2.4.4.9.6,1.3.1.3.2.7.4,1l.3,1.7.6,1.3c1.1,4.1,2.1,8.3,3.2,12.4-.5.7,0,1.2.4,1.7.7,4.1,1.6,8.2,2,12.4.5,4.3,1,8.6,1.1,12.9,0,3.8.4,7.6.3,11.5,0,2.8-.2,5.6-.3,8.3,0,.6-.2,1.2-.4,1.8-1,.7-1.1,1.8-1.2,2.9-.9,1.6-2.2,2.8-3.7,3.7-.7-.1-1.2.2-1.5.8-2.9,1.2-5.8,1.1-8.6-.2-.6-.3-1.2-.7-1.9-1.1-.5-1.2-1.4-2-2.5-2.6-1.5-2-2.1-4.2-2.1-6.7,0-3.5,0-7,.1-10.5,0-2.2.2-4.4,0-6.6-.5-4.9-1-9.8-1.5-14.7.3-.6.5-1.2-.2-1.8h0Z"/>
      <path class="cls-1" d="M376.5,229.6c-.9-.3-1.8-.7-2.8-1-.2-.8-.7-1.2-1.6-.8-.9-.8-1.9-1.6-2.8-2.5-27.8-27.8-55.6-55.6-83.5-83.5-4.1-4.1-8.5-8-13.2-11.4-1.1-.8-2.2-1.6-3.3-2.4,0-.9-.4-1.1-1.2-.7-5.6-3.5-11.4-6.6-17.5-9-.6-.2-1.2-.4-1.8-.6-.6-.2-1.1-.4-1.6-.7-7.3-2.7-14.8-4.2-22.5-5.2-3.3-.4-6.6-.6-9.8-.7-2.1-.1-4.3,0-6.4,0-2.4.2-4.9.6-7.4.7-3.4,0-6.6,1-9.9,1.6-1.7.3-3.4.7-5.1,1.1-.7-.4-1.3-.1-1.7.5-.3.1-.6.2-1,.3-.7-.4-1.3-.2-1.7.5-.3.1-.6.2-1,.4-1.6,0-3.1.4-4.3,1.5-1.5.6-3.1,1.3-4.6,1.9-.5.2-1.1.5-1.6.7-.5.2-1,.4-1.6.6-.6,0-1.2.1-1.6.7-3.5,2-6.9,4-10.4,6-.8-.3-1.2-.2-1.2.7-3.4,2.7-6.8,5.5-10.2,8.2-4.7,3.8-8.6,8.4-12.4,13.1-3.1,3.8-5.8,7.9-8.2,12.1-.7.3-1,.7-.9,1.4-1,1.8-1.9,3.7-2.9,5.5-.6.4-.7.9-.7,1.6-.2.5-.4,1-.7,1.6-.6.4-.7.9-.7,1.6-.2.5-.4,1-.6,1.6-.7.4-.8.9-.7,1.6-2.5,6.3-4.2,12.8-5.2,19.4-.2,1.2-.4,2.4-.6,3.6-.6.6-.4,1.2,0,1.8-.7,1.8-.5,3.6-.5,5.5,0,4.2,0,8.4,0,12.7-.3.9-.6,1.8,0,2.6,0,.7.2,1.5.3,2.2-.4.6-.4,1.2.2,1.8-.4,1.1-.6,2.2.4,3.1.2,1.2.5,2.4.8,3.6-.4.6-.5,1.1,0,1.7.2,1.4-.4,2.7-.7,4.1-.2.4-.5.9-.8,1.3-1.6,3.2-4.6,4.4-7.7,5.4-1.7.5-3.6,0-5.2-.6-3.9-1.6-6.5-4.5-7.3-8.7-.6-2.9-1.1-5.8-1.3-8.8-.2-2.8-.7-5.5-.9-8.3-.2-2.5,0-5,0-7.4,0-1.2,0-2.4,0-3.6,0-1.3.4-2.7.4-4-.1-3.9.9-7.7,1.3-11.6.2-1.9.9-3.8,1-5.8,0-1.8.9-3.6,1.3-5.4,0-.2.2-.4.3-.5.6-.5.7-1,.4-1.7,1.5-5.5,3.5-10.8,5.8-16l1-1.8c.5-1.1.9-2.2,1.4-3.3.3-.7.7-1.4,1-2,.8-.9,1.6-1.8,1.6-3,1.7-2.7,3.3-5.3,4.9-8,.9-.3,1.2-1.1,1.2-2,2.1-2.8,4.2-5.6,6.3-8.4.6,0,1-.3.8-1,5.8-7.2,12.6-13.4,19.9-19,.6,0,1-.2,1.2-.8,1.5-1.1,3-2.2,4.5-3.2.6.1,1-.1,1.2-.7.5-.3,1-.7,1.4-1,.6,0,1-.2,1.2-.7,1.6-.9,3.3-1.9,4.9-2.8.8,0,1.4-.2,1.8-.9.6-.4,1.1-.7,1.7-1.1,6.2-3.2,12.7-5.6,19.2-7.9.7.4,1.3.2,1.7-.5,1.6-.4,3.1-.8,4.7-1.2.4,0,.7-.3,1.1-.5.6.2,1.2.5,1.8-.2,3.7-.9,7.4-1.4,11.1-2,7.8-1.3,15.6-1.7,23.4-1.2,4.6.3,9.2.8,13.7,1.6,4.5.8,8.9,1.5,13.3,2.8.4.6.9.9,1.7.5,5.6,1.8,11.2,3.5,16.5,6.1.3.7.9.8,1.6.7,2.6,1.3,5.2,2.7,7.8,4,.2.7.7.8,1.3.8.9.5,1.8,1,2.7,1.5.4.9,1.1,1.2,2,1.3l.9.6c.2.8.8,1.1,1.6,1.1,6.5,4.2,12.4,9.2,17.8,14.7,28.1,28.2,56.3,56.3,84.5,84.5.7.7,1.5,1.4,2.2,2.2,2.5,2.8,3.5,6.1,2.4,9.8-.1.5-.3,1-.5,1.5-.6.3-1,.8-.8,1.6-1,1.5-2.2,2.8-3.8,3.7-.8-.3-1.3,0-1.6.8l-4.1.7c-.6-.5-1.1-.6-1.7,0h0Z"/>
      <path class="cls-1" d="M385.6,540.6c2,5.7-.1,10.5-3.8,13.1-1.8,1.3-4,1.8-6.1,2.2-3.4.6-6.9,1-10.3,1.3-3.2.3-6.4.3-9.5.4-1,0-2.1,0-3.1.1-.7-.6-1.2.2-1.7.3-3.2,0-6.4,0-9.6,0-1.5,0-3.1-.3-4.6-.3-3.6-.2-7.2-.2-10.8-.5-3.9-.3-7.7-.8-11.6-1.5-4.8-.8-9.5-1.6-14.2-2.6-3.6-.7-7.1-1.7-10.7-2.6-.6,0-1-.9-1.7-.5-1.9-.6-3.9-1.2-5.8-1.8-.9-.8-1.9-1-3-1-11.8-3.8-23.1-8.7-34.1-14.6-.6-.3-1.3-.7-1.9-1.1-.3-.7-.9-.8-1.5-.8-.9-.5-1.7-.9-2.6-1.4-.7-.5-1.4-1-2.1-1.6-.3-.4-.7-.7-1.3-.5-.3-.2-.6-.4-.9-.5-.2-.8-.7-1-1.4-.9-.5-.3-1-.6-1.4-.9,0-.7-.5-.8-1.1-.7-.3-.2-.6-.4-.9-.6-.4-.9-1-1.3-2-1.2-.3-.2-.6-.4-.9-.7-.4-1-1.2-1.4-2.2-1.5-.3-.2-.6-.5-.9-.7-.2-.9-.8-1.3-1.7-1.2-.3-.2-.6-.4-.9-.7-.4-1-1-1.7-2.2-1.5-5.1-4.1-10.3-8.2-15.2-12.4-3.3-2.8-6.5-5.9-9.6-9-43.6-43.6-87.3-87.2-130.9-130.9-4.6-4.6-9.1-9.2-13.1-14.3-1.9-2.4-2.9-5-2.7-8.1,0-.4.3-.8.4-1.1.7-.9,1.1-1.8,1-3,.9-1.1,1.8-2.2,2.8-3.3,1.5-1.6,3.6-1.9,5.6-2.3,1.8-.4,3.7-.2,5.4.9.4.6.9.9,1.6.6.5.4.9.7,1.4,1,0,.7.2,1,.9.9.7.8,1.3,1.5,1.9,2.3,0,1,.3,1.5,1.3,1.6,11.5,12.5,23.8,24.2,35.8,36.2,34.9,34.9,69.8,69.8,104.7,104.7,7.1,7.1,14.8,13.7,23.1,19.5,2.1,1.5,4.2,3,6.4,4.5.3.9.9,1.6,2,1.2,7.4,4.8,15.2,9,23.2,12.8.5.2,1.1.5,1.6.7,1.1.5,2.2,1,3.3,1.5.4.7,1,.8,1.6.6.9.4,1.8.8,2.7,1.2.4.7,1,.8,1.7.5.9.4,1.9.8,2.8,1.2.4.9,1,.7,1.7.5,2.5.9,5.1,1.8,7.6,2.6.5.5,1,.8,1.7.5,5.7,1.9,11.5,3.3,17.4,4.5.7.1,1.4.3,2.1.5.5.5,1,.8,1.7.4,4,.6,8.1,1.2,12.2,1.8,3,.4,6.1,1,9.2.9.7,0,1.4.2,2.1.3.8.7,1.7.4,2.6.2,5.1,0,10.1.1,15.2,0,1.8,0,3.5-.3,5.2-.4,2.8-.2,5.5-.4,8.3-.5,2.8-.1,5.4-1,8.2-.8,1.3-1,2.8-.3,4.2-.2.7,1.2,1.7,1.3,2.9,1.2,1.6.9,2.9,2.2,3.9,3.8-.3,1-.3,1,.8,1.5h0Z"/>
      <path class="cls-1" d="M533.5,245.8c1.5,3,3,6,4.5,9-.2,1.5.5,2.5,1.5,3.4.2.5.5,1,.7,1.4-.2.7,0,1.3.6,1.6.7,1.5,1.5,3,2.2,4.5-.4.7-.3,1.2.4,1.7,1.9,5.6,3.8,11.3,5.8,16.9-.4.7-.1,1.3.5,1.7.4,1.5.8,3,1.2,4.5-.3.7-.1,1.2.5,1.7.4,1.8.9,3.6,1.3,5.4-.3.6-.4,1.2.3,1.7.1.1.2.3.2.5-.2.6-.5,1.2.2,1.8.7,3.4,1.4,6.8,2,10.3.4,2.3.6,4.7.9,7-.4.6-.4,1.2.2,1.8.2,2.7.3,5.4.7,8,.6,3.4.1,6.8.5,10.1-.4.3-.3.6,0,.9h0c-.6.9-.8,1.8.2,2.6,0,3,.2,6-.3,9-.2,1.4,0,2.9,0,4.3,0,1,0,2.1,0,3.1-.4,4.4-.8,8.8-1.2,13.1-.2,1.5-.5,3-.7,4.5-.4.2-.4.5-.1.9-.1.7-.2,1.5-.3,2.2-.7.5-.5,1.1-.2,1.7-.6.8-.5,1.8-.5,2.7-.6.5-.7,1.1-.3,1.7-.8,3.3-1.5,6.7-2.3,10-.3,1.4-.7,2.8-1,4.1-.7.5-.5,1.1-.3,1.7-.4,1.5-.9,3-1.3,4.5-.6.4-.8,1-.5,1.7-.5,1.7-1,3.3-1.6,5-.8.7-.9,1.7-1.2,2.6-.4.5-.6,1-.3,1.7-.7,1.8-1.4,3.6-2,5.4-.6.4-1,.9-.6,1.6-.3.5-.6,1-.8,1.6-1.2,2.9-2.4,5.8-3.6,8.8-.3.7-.6,1.4-.9,2.1-1.5,2.8-2.9,5.6-4.3,8.5-.5.3-.7.7-.6,1.3-.6,1-1.3,2.1-1.9,3.2-.6.2-.8.7-.7,1.3-.5.9-1,1.8-1.5,2.7-.6.2-.8.6-.7,1.2-.3.5-.6.9-.9,1.4-.7.2-.9.6-.8,1.3-.2.3-.4.6-.6.9-.9.4-1.3,1-1.2,2-4.2,6.3-8.5,12.5-13.3,18.3-.3.3-.6.6-.8.9-1-.1-1.2,0-.8,1.1-3.3,4.1-6.8,8.1-10.5,11.9-5.6,5.7-11.3,11.3-17.5,16.4-1.5,1.2-3,2.5-4.6,3.7-3.3,2.4-6.8,2.7-10.6,1.2-.3-.5-.8-.7-1.3-.7-.3-.2-.6-.4-.9-.6-.8-.8-1.6-1.6-2.4-2.5-.2-.3-.4-.6-.6-.9,0-.6,0-1.1-.6-1.3-1.3-2.9-1.2-5.7.2-8.6.8-.3,1-.8.8-1.6.4-.5.8-.9,1.1-1.4.7.1,1-.2.9-.9,3.6-3.1,7.3-6.1,10.9-9.3,6.5-6,12.7-12.2,18.2-19.1.3-.3.5-.6.8-.9.8,0,1-.2.8-1.1,3.6-4.9,7.2-9.8,10.8-14.7.8-.3,1.2-.9,1.1-1.7,4.8-7.7,9.3-15.7,13.1-24,.3-.8.7-1.5,1-2.3,1.6-2.4,2.7-5,3.3-7.8.3-1,.7-1.9,1-2.8,1-.8,1.3-1.8,1-3,1.2-3.3,2.3-6.6,3.1-10.1.7-3.1,1.7-6.2,2.5-9.3.3-1.1.4-2.2.7-3.2.7-.4.7-1,.5-1.7,4.2-21.4,5-43,2.3-64.6,0-.6-.2-1.2-.2-1.8-.6-3.5-1.1-7-1.9-10.5-1-4.5-2.1-8.9-3.1-13.4.5-1.2-.3-2.1-.9-3-1.3-3.9-2.4-7.9-3.8-11.7-1.7-4.4-3.6-8.8-5.4-13.1.3-.8,0-1.2-.7-1.6-2.2-4.4-4.4-8.8-6.7-13.1.1-.7,0-1.3-.8-1.6-2.8-4.4-5.7-8.9-8.5-13.3,0-.8-.4-1.4-1.1-1.7-4.4-6-8.9-11.8-13.8-17.3-1.6-1.8-3.2-3.6-4.9-5.2-9.5-9.5-19-19-28.5-28.5-1.4-1.4-2.7-2.9-3.5-4.8-2.6-6,1.1-12.8,7.5-14.4,4.2-1.1,7.5,0,10.5,2.8,1.6,1.5,3.1,3.1,4.6,4.6,5.1,5.1,10.1,10.2,15.2,15.2,8.2,8.1,16.3,16.4,23.5,25.4,0,.6.3.9.8,1.1,5.7,7.3,10.9,14.9,15.6,22.9.3.5.6.9.9,1.4,1.1,2,2.2,4,3.3,6-.3.9,0,1.3.8,1.6h0Z"/>
      <path class="cls-1" d="M387.2,391.9c-2.7,1.2-5.6,1.6-8.5,2.1-4.5.8-9,.8-13.6.5-3-.2-6.1-.7-9.1-1.5-5.1-1.4-10-3.2-14.6-6-.4-.7-1-1-1.8-1-1.3-1-2.6-1.9-3.9-2.9-.1-.6-.5-1-1.2-.9-1.3-1.2-2.7-2.3-3.9-3.5-21.8-21.8-43.7-43.7-65.5-65.5s-1.6-1.7-2.4-2.5c0-.6-.2-1-.7-1.2-1.3-3.7-1.5-7.4.9-10.8,1-.6,1.9-1.2,2.3-2.4l.9-.6c1.8-.5,3.6-.9,5.4-1.4,0,0,.1-.1.2-.2,3.3,0,5.9,1.1,8.3,3.5,21.2,21.3,42.4,42.5,63.6,63.7,3.2,3.2,6.6,6,10.7,8,4.2,2.1,8.7,3.4,13.4,3.6,5.9.3,11.7-.7,17-3.5.8-.4,1.7-.9,2.5-1.3.7.3,1.2.1,1.2-.7,4.1-2.9,7.7-6.3,10.5-10.5.3-.5.6-1.1.9-1.6.7-.3,1.1-.7.8-1.5,4.7-9.2,4.9-21.6.4-30.7.2-1.4-.5-2.3-1.6-3.1-1.7-2.7-3.7-5-5.9-7.2-11.7-11.7-23.4-23.4-35.1-35-1.6-1.6-3-3.5-3.8-5.6-.8-1.9-.8-3.9-.4-5.8.5-2.1,1.5-4.1,3.2-5.5.7-.6,1.5-1.1,2.3-1.6.9.5,1.4.1,1.7-.7,4.1-1.4,7.7-.4,11,2.1.6.5,1.2,1.2,1.8,1.8,11.7,11.7,23.4,23.4,35.1,35.1,4.2,4.2,7.8,8.9,10.5,14.2,0,1.4.6,2.5,1.7,3.3,1,3,2.2,5.9,3,8.9,1.2,4.6,1.7,9.3,1.7,14.1,0,6.4-1,12.7-3.1,18.8-.6.4-.7,1-.6,1.6-.2.5-.4,1-.6,1.5-.9,1.8-1.9,3.5-2.8,5.3-.5.4-.8.9-.5,1.5-.8,1.2-1.5,2.4-2.3,3.6-.8.3-1.2.9-1.2,1.7-3.4,4.4-7.3,8.4-11.9,11.6-.6-.1-1,0-1,.8-.3.2-.6.4-.9.6-.9-.1-1.5.2-1.8,1.1-.3.2-.6.4-.9.6-1.5-.1-2.4.7-3.3,1.7-.7.3-1.3.6-2,1-.7-.2-1.3,0-1.6.6-.5.2-1,.5-1.4.7-1.1,0-2.1.3-3,1h0Z"/>
      <path class="cls-1" d="M307.6,486.5c4.7,1.3,9.5,2.4,14.4,3,.5,0,1.1,0,1.5.3.8.7,1.6,0,2.4.2.4.3.8.6,1.2.8.4.2.8.1.9-.3.6,0,1.3-.1,1.8,0,1.3.4,2.6.4,3.9.4.9,0,1.8.2,2.7.4.9.4,1.7.4,2.6,0,6.4-.1,12.7.2,19.1-.4.6.3,1.2.4,1.8-.2,3.9-.5,7.7-.9,11.5-1.6,2.7-.5,5.4-.8,7.9-1.8.7.4,1.3.2,1.7-.4.5,0,1-.1,1.4-.3.6-.2,1.1-.4,1.7-.6.7.4,1.3.2,1.7-.4,3-.8,6-1.7,8.9-2.9,1.1-.1,2.1-.4,3-1.1,6.8-2.6,13.3-5.7,19.6-9.3.9.3,1,.2,1.3-.6,1.9-1.2,3.9-2.5,5.8-3.7.9.3,1.5-.3,2-.9.8-.7,2.1-.8,2.4-2,.5-.3.9-.7,1.4-1,.9,0,1.5-.3,1.7-1.2.5-.4.9-.7,1.4-1,.6,0,1.2,0,1.2-.9,8-6.1,15.3-13.1,21.9-20.8,1.1-1.3,2.3-2.7,3.4-4,.6-.2,1-.5.8-1.2,1.6-2.2,3.2-4.3,4.8-6.5,1.1-.5,1.5-1.6,2-2.6.6-.5,1.2-1.1.9-2,.2-.3.4-.6.6-.9.7-.1,1-.5.8-1.2.2-.3.4-.6.6-.9.8-.1.9-.6.8-1.3.2-.3.4-.6.5-1,.8-.2,1-.6.7-1.3.2-.3.4-.6.6-1,1.1-.7,1.6-1.8,1.6-3,2.9-5.4,5.4-11,7.6-16.7,1.4-3.7,4.2-6.3,8.1-7,4-.7,7.6.3,10.4,3.5.2.2.4.5.6.7-.2.7,0,1.1.7,1.3,1.1,2.2,1.7,4.5,1,7-.4.2-.5.5-.2.9-.8,2.1-1.5,4.2-2.3,6.2-.6.4-.7.9-.7,1.6l-1.4,3.4c-.3.4-.5.8-.8,1.2-.9,1.6-2,3.2-2.2,5.1-1.6,2.9-3.2,5.8-4.8,8.6-.8.2-1.2.7-.8,1.5-11.9,20-27.4,36.8-46.2,50.5-.7-.1-1,.3-1.2.9-1.4,1-2.7,1.9-4.1,2.8-.7-.4-1.2-.1-1.2.7-2,1.2-3.9,2.5-5.9,3.7-1.1-.2-1.1-.2-1.5.8-1.5.9-3,1.9-4.5,2.8-1.7-.1-2.8.9-3.9,1.9-.7.3-1.4.7-2,1-.6-.2-1.1,0-1.6.5-.6.4-1.2.7-1.7,1.1-.5.2-1,.5-1.5.7-.5.2-1.1.3-1.6.5-.6.3-1.2.7-1.8,1-6,2.7-12.3,4.9-18.6,6.7-.7-.4-1.2-.2-1.7.4-.3.1-.7.2-1,.3-.7-.3-1.2,0-1.7.5-.6.2-1.2.3-1.8.5-.7-.3-1.2-.1-1.7.4-3.7,1-7.5,1.7-11.3,2.4-2.8.5-5.7.7-8.5,1.1-2.7.4-5.5.7-8.3,1-.8,0-1.7,0-2.5,0-1.9,0-3.7.3-5.6.3-2.6,0-5.2,0-7.8-.2-.4,0-.8-.1-1.2-.1-3.4,0-6.8-.4-10.2-.6-.6,0-1.2,0-1.8-.1-2.8-.4-5.6-.8-8.4-1.1-.6,0-1.2-.1-1.8-.2-5.5-1.1-11-2.1-16.4-3.7-.4-.6-1-.8-1.7-.5-2.7-.9-5.5-1.7-8.2-2.6-2.4-.8-4.4-2.2-5.8-4.4.4-.9,0-1.3-.8-1.5-2-4-1.4-7.8,1.3-11.2,2.5-3.2,5.9-4.8,10.1-3.9.4,0,.8,0,1.2,0,1.3,1,2.6,1.7,4.3,1.4,1.5.5,3,.9,4.5,1.4.5.6,1,.8,1.7.5h0Z"/>
      <path class="cls-1" d="M279.4,449.6c-3.2-2.3-6.5-4.5-9.7-6.8,0-.8-.4-.8-1-.8-4.1-3.2-7.9-6.8-11.6-10.4-27-27-53.9-53.9-80.9-80.9-.7-.7-1.5-1.4-2.2-2.2-4-5.1-3.6-9.4-.2-13.9.7-.9,1.7-1.5,2.6-2.2.7.1,1.2-.2,1.5-.9,4.7-1.5,8.9-1,12.5,2.7.5.5,1,1,1.5,1.5,27,27,54,54,81,81,5.5,5.5,11.5,10.2,18,14.3.3.7.9.9,1.5.8,3.1,2.2,6.5,3.7,9.9,5.3.3.7.8,1,1.6.7,2,.8,3.9,1.6,5.9,2.4.4.6.9.9,1.7.6,4.4,1.5,8.8,2.9,13.3,3.7.6.1,1.2.3,1.8.5.5.7,1.1.6,1.8.2,2.6.3,5.2.8,7.9,1,5.1.5,10.3.2,15.4.3,2.7,0,5.4-.6,8.1-.9.3.3.6.3.9-.1,4.3-.8,8.6-1.9,12.9-2.8,4.7-1,8.9.3,11.7,4.7-.4,1-.4,1.1.6,1.2,2.9,5.6-.1,12.3-5.6,14.7-2.2.9-4.5,1.3-6.8,1.9-.7-.4-1.2-.1-1.7.4-.2,0-.3,0-.5.1-.7-.4-1.2-.1-1.7.4-.2,0-.4.2-.5.3-3.6.4-7.2,1.1-10.9,1.4-2.1.2-4.2.7-6.4.5-.6-.4-1.2-.4-1.7,0-2.9.6-5.8.3-8.6.2-.9,0-1.8-.3-2.7-.3-7.5-.1-14.9-1.5-22.2-3.2-4.5-1-8.9-2.4-13.3-4-1.4-.5-2.7-1-4.1-1.5-.3-.7-.9-.9-1.6-.7-.5-.2-1-.4-1.5-.6-.9-1-2-1.7-3.4-1.6-1.9-.9-3.7-1.9-5.5-2.8-.3-.7-.7-1.1-1.5-.8-1.6-.9-3.2-1.9-4.8-2.8-.3-.6-.7-1-1.4-.9h0Z"/>
      <path class="cls-1" d="M461.5,386.7c-.3.9-.7,1.9-1,2.8-.7.3-.9.9-.7,1.6-.6,1.5-1.3,3.1-1.9,4.6-1.1.9-1.6,2-1.5,3.4-2.9,5.8-6.1,11.3-9.9,16.6-3.5,4.9-7.2,9.6-11.5,14-.4.4-.8,1-1.2,1.4-.8.8-1.5,1.5-2.3,2.3-.7.6-1.4,1.2-2.1,1.8-6,5.8-12.6,10.7-19.7,15.1-1.4.9-3,1.6-4.5,1.9-2.8.6-5.3-.5-7.6-1.9-1.4-.9-2.5-2.2-3.4-3.6.2-.8-.1-1.2-.8-1.5-.2-.7-.4-1.4-.5-2-.4-2.1-.3-4.2.7-6.2.6-.2.7-.7.7-1.3.2-.3.4-.6.7-.9.6-.7,1.3-1.3,1.9-2,.5-.4.9-.7,1.4-1,.6,0,1-.1,1.2-.7,1.4-1,2.7-1.9,4-2.8.8,0,1.4-.3,1.7-1.1,8.6-6.2,15.9-13.7,22.2-22.1.8-1.1,1.5-2.2,2.3-3.4.8-.3,1.1-1,1.2-1.8.2-.3.4-.6.6-.9.6-.2.8-.7.8-1.3.2-.3.4-.6.6-.9.7-.3,1-.8.8-1.5.5-.8.9-1.6,1.4-2.5,1-.8,1.4-1.8,1.7-3,.5-.6,1.1-1.2.8-2.1.5-1.1,1-2.2,1.4-3.3.7-.3,1-.8.7-1.6,2.6-6.4,4.3-13,5.6-19.6.6-2.8.5-5.7,1-8.5,1-6,.2-12,.4-17.9.6-.7-.2-1.2-.4-1.7-.3-2.8-.6-5.5-1-8.2-.1-.8-.3-1.6-.4-2.4.4-.7.1-1.2-.4-1.7,0-.2-.1-.3-.2-.5.2-.6.5-1.3-.2-1.8-.2-.6-.4-1.2-.5-1.8.4-.7.3-1.3-.4-1.7l-.3-1c-.1-.6-.2-1.1-.4-1.7-.2-.4-.4-.9-.5-1.3-.8-2.2-1.7-4.5-2.5-6.7-.2-.5-.4-1.1-.6-1.6-1.1-2.4-2.2-4.7-3.4-7.1-.2-.4-.5-.9-.7-1.3-3.5-6.4-7.6-12.4-12.4-17.9-1.8-2.1-3.8-4.1-5.7-6.1-4-4.1-8-8.2-12.1-12.1-2.5-2.4-4.1-5.1-4.4-8.6,0-.3,0-.6,0-.9.2-.9.4-1.7.7-2.5,1.2-3.2,3.4-5.6,6.6-6.9.7.3,1.2,0,1.7-.5,1,0,2,.4,2.9.2,2.4-.5,4.2.7,6,2,.6.4,1.1,1,1.6,1.5,5.1,5.1,10.3,10.3,15.4,15.4,4,4.1,7.7,8.5,10.9,13.1,0,.9.3,1.4,1.1,1.7.4.5.7.9,1,1.3,0,.9.3,1.6,1.3,2,.2.3.4.6.6.9.4,1.6,1.2,2.9,2.4,4,.8,1.4,1.6,2.8,2.4,4.2,0,.7,0,1.3.8,1.5l1,2c0,.6.1,1.2.7,1.6,1.4,3.4,2.9,6.9,4.3,10.3-.4.8,0,1.2.6,1.7,1,3,2.2,5.9,2.6,9,0,.3.3.5.4.8-.4.7-.2,1.2.4,1.7.2.6.3,1.2.5,1.8-.1.2-.3.5-.4.7.2,0,.4.1.6.2.5,1.9.5,3.9,1.2,5.7-.2.6-.5,1.2.1,1.8.6,3.9,1,7.7,1.2,11.6.1,3.1.5,6.2.3,9.2-.2,3.6,0,7.2-.8,10.7-.2,1.1-.2,2.2-.3,3.4-.6.5-.5,1.1-.2,1.8-.7,3.1-.9,6.2-1.8,9.2-1,3.5-1.8,7.1-2.7,10.7-.5,1.4-1,2.9-1.5,4.3h0Z"/>
      <path class="cls-1" d="M188.9,68c-1.2.7-2.6,1.1-4,1.1-.7-.4-1.2-.2-1.7.4-.2,0-.3.1-.5.2-.3,0-.6,0-.9.1-4.1,1.1-8.3,2.1-12.4,3.2-.7-.3-1.2,0-1.7.5-2.8.9-5.6,1.9-8.4,2.8-.9-.5-1.8-.5-2.7,0-3.5-.4-6.2-2.2-8.1-5.1-2.9-4.6-2.2-9.2,1.1-13.1.6-.7,1.4-1.2,2.1-1.8.6,0,1.1-.1,1.3-.7l1.5-.7c1.2.2,2.1-.2,3-1,2.9-.9,5.8-1.7,8.6-2.6,4.7-1.6,9.6-2.5,14.5-3.6,3.4-.8,7-1.1,10.1,1.3,1,1,1.9,1.9,2.9,2.9,2.1,2.9,1.9,6.1,1.4,9.4-.7.3-1,.9-.6,1.6-1.1,2.1-2.7,3.7-4.7,4.8-.3,0-.5.1-.8.2h0Z"/>
      <path class="cls-1" d="M124.4,286.3c1.5-1.7,3.1-3.3,5.4-4,3.7-1.1,7.2-.6,10.2,1.8.6.5,1.1,1,1.6,1.5,5.7,5.7,11.4,11.3,17,17,.7.7,1.4,1.5,2.1,2.3.5,1,.9,2.1,1.4,3.1,0,1.8.2,3.5,0,5.3-.2,1.9-1.2,3.5-2.5,4.9-.7-.1-1,.2-.9.9-1.3,1.4-3.1,2.2-4.8,2.8-2.1.6-4.5.4-6.6-.8-1.2-.7-2.5-1.5-3.5-2.5-6.1-6-12.2-12.2-18.3-18.2-3.1-3.1-4.4-8.4-2.1-12.8.2-.4.5-.8.8-1.2h0Z"/>
      <path class="cls-1" d="M422.1,520c.5-.2,1.1-.4,1.6-.6l1.5-.5c.6-.4,1.2-.7,1.8-1.1.9-.4,1.7-.8,2.5-1.2,6.2-2.2,13,1.9,14.2,7.9,1.2,5.8-2,10.2-5.6,12-2.8,1.4-5.6,2.6-8.5,4-1.3.6-2.6,1.2-4,1.8-.6,0-1.3-.4-1.7.5-.9.4-1.9.8-2.8,1.1-.6-.4-1.1,0-1.7.3-.4.3-.8.5-1.3.8-2.1.6-4.1,1.6-6.3,1.5-.6-.1-1-.9-1.7-.4-3.2-.6-5.4-2.6-7.2-5,.1-.6-.1-1.1-.7-1.3-.2-.6-.4-1.2-.5-1.8-1.1-4.2.1-7.7,3.2-10.6.7-.6,1.5-1.1,2.2-1.6.7.4,1.1,0,1.6-.4.9-.4,1.8-.9,2.7-1.3,1.2.2,2.1-.2,3-1.1.9-.4,1.8-.8,2.8-1.2.7.2,1.3,0,1.6-.6.5-.2,1-.5,1.5-.7.7.1,1.2,0,1.6-.7h0Z"/>
      <path class="cls-1" d="M523.3,414.4c-.6,2.8-1.7,5.4-3.3,7.8,0-1.6.8-2.9,1.4-4.3.5-1.2.7-2.6,1.9-3.5h0Z"/>
      <path class="cls-1" d="M145.1,172.3c0,.2.1.4,0,.6-1.2,2.3-2.5,4.5-3.8,6.8,0-.2-.2-.4-.1-.6,1.1-2.2,2.2-4.3,3.3-6.5,0-.1.3-.2.5-.3Z"/>
      <path class="cls-1" d="M475.3,277.7c1.7,2.4,2.8,4.8,3.3,6.9-1.6-1.9-2.3-4.2-3.4-6.4,0-.1,0-.4.1-.6Z"/>
      <path class="cls-1" d="M125.7,18.6c-2.1,1.5-4.4,2.5-6.9,3.3,0-.2,0-.5.2-.5,2-1,4-1.9,6.1-2.9.2,0,.4,0,.6,0h0Z"/>
      <path class="cls-1" d="M63,289.1c1.4,1.6,2.6,3.4,2.9,5.5-1.4-1.6-2.4-3.5-2.9-5.5Z"/>
      <path class="cls-1" d="M271.7,294.1c0,0-.1.2-.2.2-1.8.5-3.6.9-5.4,1.4,1.6-1.6,3.4-2.2,5.6-1.6h0Z"/>
      <path class="cls-1" d="M295.1,40.3c.3,0,.6-.2.9,0,1.6.8,3.2,1.7,4.8,2.6-.1.1-.2.2-.4.3-1.8-.9-3.5-1.9-5.3-2.8Z"/>
      <path class="cls-1" d="M419.1,365.2c.9-1.8,1.9-3.5,2.8-5.3,0,.4.1.8,0,1.2-.8,1.5-1.6,3-2.5,4.5-.1-.1-.2-.2-.3-.4h0Z"/>
      <path class="cls-1" d="M80.3,150.2c.8-1.8,1.4-3.8,2.8-5.3-.3,2.1-1.4,3.9-2.5,5.6,0-.1-.2-.2-.3-.4h0Z"/>
      <path class="cls-1" d="M495.5,420.7c.3-1.9,1.3-3.5,2.2-5.1.1.1.2.2.3.3-.7,1.7-1.1,3.5-2.5,4.8h0Z"/>
      <path class="cls-1" d="M237.6,68.7c1.4-.8,2.7,0,4,.4.3,0,.5.3.8.4,0,0-.1.2-.2.2-1.6,0-3.2,0-4.6-1Z"/>
      <path class="cls-1" d="M184.5,163.4c1.4-1.3,3-2.2,4.9-2.4-1.4,1.1-3.1,2-4.9,2.4Z"/>
      <path class="cls-1" d="M40.6,130.1c.2-2,1-3.7,2.5-5.1-.5,1.9-1.4,3.6-2.5,5.1Z"/>
      <path class="cls-1" d="M452,282.9c-1.2-1.1-2-2.4-2.4-4,1.6,1.5,2,2.2,2.4,4Z"/>
      <path class="cls-1" d="M176.7,117.7c1.2-1.1,2.7-1.5,4.3-1.5-1.2,1.1-2.7,1.4-4.3,1.5Z"/>
      <path class="cls-1" d="M193.7,52c-1-1-1.9-1.9-2.9-2.9,1.6.3,2.6,1.3,2.9,2.9Z"/>
      <path class="cls-1" d="M301.4,484.7c-1.7.3-3.1-.3-4.3-1.4,1.6-.2,3,.5,4.3,1.4Z"/>
      <path class="cls-1" d="M24.3,311.1c1,1,1.9,1.9,2.9,2.9-1.6-.3-2.6-1.2-2.9-2.9Z"/>
      <path class="cls-1" d="M56.7,150.2c.1,1.7-.6,3-1.6,4.2,0-1.6.3-3.1,1.6-4.2Z"/>
      <path class="cls-1" d="M461.5,386.7c.5-1.4,1-2.9,1.5-4.3,0,2-.2,2.7-1.5,4.3Z"/>
      <path class="cls-1" d="M504.4,291.3l-1.3-4.3c1.1,1.1,1.3,2.5,1.6,3.9-.1.1-.2.2-.3.4h0Z"/>
      <path class="cls-1" d="M304.5,45c1.5.2,2.7,1,3.8,2-1.6,0-2.7-1-3.8-2Z"/>
      <path class="cls-1" d="M175.9,143.3c-.9,1.3-1.8,1.8-3.6,1.9,1-1,2.2-1.7,3.6-1.9Z"/>
      <path class="cls-1" d="M421.4,495.1c1.1-1,2.2-2,3.9-1.9-1,1.2-2.4,1.6-3.9,1.9Z"/>
      <path class="cls-1" d="M461.6,509.9c.8.8,1.6,1.6,2.4,2.5-1.5-.1-2.3-1-2.4-2.5h0Z"/>
      <path class="cls-1" d="M265.2,296.3c-.4,1.2-1.3,1.9-2.3,2.4.2-1.4,1-2.1,2.3-2.4Z"/>
      <path class="cls-1" d="M493.3,361.3c1.1.6,2,1.4,2.5,2.6-1.3-.4-2.2-1.2-2.5-2.6Z"/>
      <path class="cls-1" d="M316.2,79.9c-1.3-.3-2.3-.9-2.9-2.1,1.4,0,2.3.9,2.9,2.1Z"/>
      <path class="cls-1" d="M310,23.2c-1.4,0-2.5-.5-3.3-1.6,1.3,0,2.4.8,3.3,1.6Z"/>
      <path class="cls-1" d="M421.6,315.1c-1-.9-1.6-2-1.7-3.3,1,.9,1.5,2,1.7,3.3Z"/>
      <path class="cls-1" d="M472.1,272c.8,1,1.6,1.9,1.8,3.2-1.1-.8-1.8-1.8-1.8-3.2Z"/>
      <path class="cls-1" d="M292.7,456.8c1.4-.1,2.5.5,3.4,1.6-1.3,0-2.4-.7-3.4-1.6Z"/>
      <path class="cls-1" d="M474.6,413.5c0,1.3-.5,2.3-1.6,3,0-1.3.8-2.1,1.6-3Z"/>
      <path class="cls-1" d="M105,152.8c0,1.3-.8,2.2-1.6,3,0-1.3.5-2.3,1.6-3Z"/>
      <path class="cls-1" d="M102.4,157.8c-.5,1.1-.9,2.2-1.4,3.3-.1-.1-.2-.2-.3-.4.6-1,.7-2.2,1.8-2.9Z"/>
      <path class="cls-1" d="M456.4,399.1c0-1.4.4-2.5,1.5-3.4,0,1.3-.7,2.4-1.5,3.4Z"/>
      <path class="cls-1" d="M436.7,389.9c-.3,1.2-.8,2.2-1.7,3,0-1.3.9-2.2,1.4-3.3.1.1.2.2.3.4Z"/>
      <path class="cls-1" d="M399.6,320c1.1.8,1.8,1.7,1.6,3.1-.7-.9-1.5-1.8-1.6-3.1Z"/>
      <path class="cls-1" d="M232.9,463c1-.7,2.1-1.4,3.4-1.5-.9,1-1.9,1.8-3.4,1.5Z"/>
      <path class="cls-1" d="M84.3,282.6c-1.1-.8-1.5-2-1.7-3.3.8,1,1.6,1.9,1.7,3.3Z"/>
      <path class="cls-1" d="M249.5,143.1c-1.4.2-2.4-.7-3.4-1.6,1.4,0,2.4.7,3.4,1.6Z"/>
      <path class="cls-1" d="M162.3,308c-.5-1-.9-2.1-1.4-3.1,1.3,1,1.6,1.6,1.4,3.1Z"/>
      <path class="cls-1" d="M395.3,388.6c.9-1,1.8-1.8,3.3-1.7-.9.9-1.9,1.6-3.3,1.7Z"/>
      <path class="cls-1" d="M539.6,258.1c-.9-1-1.7-2-1.5-3.4.9,1,1.4,2.1,1.5,3.4Z"/>
      <path class="cls-1" d="M116.7,22.8c-.8,1.1-1.8,1.8-3.3,1.7.9-.9,2-1.5,3.3-1.7Z"/>
      <path class="cls-1" d="M80.3,150.2c0,.1.2.2.3.4-.4,1.1-.7,2.2-1.6,3-.3-1.4.7-2.3,1.3-3.4Z"/>
      <path class="cls-1" d="M112.5,229.3c-1.1-.9-.9-2-.4-3.1.9.9.7,2,.4,3.1Z"/>
      <path class="cls-1" d="M396.8,432.9c-.6.7-1.3,1.3-1.9,2,.1-1.4.5-1.8,1.9-2Z"/>
      <path class="cls-1" d="M546,415.2c.2-.9.3-1.9,1.2-2.6.3,1.1-.3,2-.8,3-.1-.1-.2-.2-.3-.4h0Z"/>
      <path class="cls-1" d="M73.9,258.4c-.8-.9-1.1-1.9-.9-3,.8.9,1.2,1.8.9,3Z"/>
      <path class="cls-1" d="M273.8,55.9c-1.2.2-2.2-.2-3-1,1.2-.2,2.1.3,3,1Z"/>
      <path class="cls-1" d="M48.9,337.7c0,1.1-.4,2.1-1,3-.2-1.2,0-2.2,1-3Z"/>
      <path class="cls-1" d="M528.4,291c.5.9,1.4,1.8.9,3-.7-.9-1.1-1.9-.9-3Z"/>
      <path class="cls-1" d="M414.6,523.2c-.8.9-1.8,1.2-3,1.1.8-.8,1.8-1.3,3-1.1Z"/>
      <path class="cls-1" d="M525.3,408.6c.3,1.2,0,2.2-1,3,0-1.1.3-2.1,1-3Z"/>
      <path class="cls-1" d="M156.2,7.8c-.7.9-1.8.6-2.7.9-.1-.1-.3-.2-.4-.3.9-.6,2-.8,3.1-.5h0Z"/>
      <path class="cls-1" d="M97.8,303.3c-1.2-.2-1.5-1.1-1.7-2.1,1,.4,1.5,1.1,1.7,2.1Z"/>
      <path class="cls-1" d="M34.2,280.5c-.9-.8-1.4-1.7-1.1-3,.7.9,1.1,1.9,1.1,3Z"/>
      <path class="cls-1" d="M380.9,535.3c-1.2.1-2.3,0-2.9-1.2,1.2,0,2.1.3,2.9,1.2Z"/>
      <path class="cls-1" d="M279,547.3c1.1,0,2.1.2,3,1-1.2.3-2.2,0-3-1Z"/>
      <path class="cls-1" d="M467.5,426.1c-.6,1-1,2-2,2.6,0-1.3,1.1-2,1.7-2.9.1.1.2.2.3.3h0Z"/>
      <path class="cls-1" d="M345.3,236.5c-.7-.9-1.2-1.8-.9-3,.8.9,1.2,1.8.9,3Z"/>
      <path class="cls-1" d="M11.9,282.9c.8.8,1.2,1.8,1,3-.9-.8-1.2-1.8-1-3Z"/>
      <path class="cls-1" d="M428.9,465.2c-.3,1.2-1.6,1.3-2.4,2-.1-.1-.2-.2-.3-.3.8-.7,1.5-1.6,2.8-1.7h0Z"/>
      <path class="cls-1" d="M397.8,481.7c-.9.7-1.9,1-3,1.1.8-1,1.7-1.4,3-1.1Z"/>
      <path class="cls-1" d="M511.5,360.6c0-1.1.1-2.2,1.2-2.9.3,1.2-.2,2.2-1.2,2.9h0Z"/>
      <path class="cls-1" d="M479.9,244.4c-1-.4-1.6-1.1-1.6-2.3,1.1.4,1.6,1.1,1.6,2.3Z"/>
      <path class="cls-1" d="M157.5,54c-.8.8-1.8,1.2-3,1,.8-.9,1.8-1.2,3-1Z"/>
      <path class="cls-1" d="M218.9,516.4c1.2-.2,1.9.5,2.2,1.5-1-.2-1.8-.6-2.2-1.5Z"/>
      <path class="cls-1" d="M387.2,391.9c.9-.7,1.9-1,3-1-.7,1.1-1.8,1.3-3,1Z"/>
      <path class="cls-1" d="M339,491.3c-.9.3-1.8.4-2.6,0,.9-.4,1.7-.3,2.6,0Z"/>
      <path class="cls-1" d="M111.6,222.2c-.7-.9-.4-1.8,0-2.6.7.9.1,1.8,0,2.6Z"/>
      <path class="cls-1" d="M22.4,227.5c-.7-.8-.5-1.7-.2-2.6.4.9.5,1.7.2,2.6Z"/>
      <path class="cls-1" d="M156.7,76.4c.9-.5,1.8-.5,2.7,0-.9.6-1.8.6-2.7,0Z"/>
      <path class="cls-1" d="M21.7,211.1c-.3-.9-.5-1.8.2-2.6.2.9.4,1.8-.2,2.6Z"/>
      <path class="cls-1" d="M558,342.2c-.9-.8-.7-1.7-.2-2.6.8.8.7,1.7.2,2.6Z"/>
      <path class="cls-1" d="M45.2,224.9c.4.9.6,1.7.2,2.6-.7-.8-.5-1.7-.2-2.6Z"/>
      <path class="cls-1" d="M224.6,520.5c1,0,1.8.5,2.2,1.5-1,0-1.8-.5-2.2-1.5Z"/>
      <path class="cls-1" d="M336.8,536c-.9.2-1.8.5-2.6-.2.9-.3,1.8-.3,2.6.2Z"/>
      <path class="cls-1" d="M430.9,400c0,.8-.3,1.5-1.2,1.8,0-.9.3-1.5,1.2-1.8Z"/>
      <path class="cls-1" d="M449,277.9c-.9-.3-1.2-1.1-1.3-2,.9.3,1.2,1.1,1.3,2Z"/>
      <path class="cls-1" d="M426.1,466.9c.1.1.2.2.3.3-.6.6-1.1,1.2-2,.9.3-.8,1-1,1.7-1.2Z"/>
      <path class="cls-1" d="M467.5,426.1c-.1-.1-.2-.2-.3-.3.2-.7.5-1.4,1.2-1.7.2.9-.3,1.5-.9,2h0Z"/>
      <path class="cls-1" d="M524.4,460.2c-.2-1,.2-1.7,1.2-2,0,.9-.3,1.6-1.2,2Z"/>
      <path class="cls-1" d="M37.7,91.7c-.2.7-.3,1.5-1.2,1.7-.1-.9.5-1.4,1.2-1.7Z"/>
      <path class="cls-1" d="M93.5,128.1c.2-.7.4-1.4,1.2-1.7.1.9-.4,1.4-1.2,1.7Z"/>
      <path class="cls-1" d="M227.7,522.6c1-.2,1.6.3,2,1.2-.9,0-1.6-.3-2-1.2Z"/>
      <path class="cls-1" d="M446.7,274.6c-.8-.3-1.1-.8-1.1-1.7.7.3,1.1.9,1.1,1.7Z"/>
      <path class="cls-1" d="M432,463c-.2.9-.8,1.2-1.7,1.2.3-.8.9-1.2,1.7-1.2Z"/>
      <path class="cls-1" d="M501.4,234.8c.7.4,1.1.9,1.1,1.7-.9-.2-1.4-.8-1.1-1.7Z"/>
      <path class="cls-1" d="M399.5,386.3c.3-.9.9-1.2,1.8-1.1-.3.8-1,1-1.8,1.1Z"/>
      <path class="cls-1" d="M506,448.5c0,.8-.3,1.4-1.1,1.7.4-.6.7-1.1,1.1-1.7Z"/>
      <path class="cls-1" d="M339.8,386c.8,0,1.4.3,1.8,1-.8,0-1.4-.3-1.8-1Z"/>
      <path class="cls-1" d="M111.2,142.8c0,.9-.3,1.6-1.2,2,0-1,.3-1.6,1.2-2Z"/>
      <path class="cls-1" d="M222,518.6c.9,0,1.5.3,1.7,1.2-.8,0-1.4-.4-1.7-1.2Z"/>
      <path class="cls-1" d="M244.4,165.3c.9-.2,1.6.1,1.7,1.1-.7-.1-1.4-.4-1.7-1.1Z"/>
      <path class="cls-1" d="M165.9,245.2c-.8-.4-1-1-1.1-1.8.9.3,1.3.8,1.1,1.8Z"/>
      <path class="cls-1" d="M69.7,339.4c-1,0-1.4-.6-1.3-1.6.8.2,1.3.7,1.3,1.6Z"/>
      <path class="cls-1" d="M256.1,146.9c-1.2.3-1.4.2-1.7-1,.7,0,1.4.3,1.7,1Z"/>
      <path class="cls-1" d="M241.7,505.5c-1.1.3-1.6-.3-2-1.2.8.2,1.6.4,2,1.2Z"/>
      <path class="cls-1" d="M236.8,527.9c.7.5,1.4,1,2.1,1.6-1.1.2-1.8-.6-2.5-1.2.1-.1.2-.2.4-.3h0Z"/>
      <path class="cls-1" d="M107.7,53.2c.3-.8.9-1.2,1.8-1.2-.3.8-.9,1.2-1.8,1.2Z"/>
      <path class="cls-1" d="M53.8,106.9c0-.8.3-1.5,1.1-1.8.1.9-.3,1.5-1.1,1.8Z"/>
      <path class="cls-1" d="M282,110.3c-.8,0-1.4-.2-1.6-1.1.8,0,1.4.2,1.6,1.1Z"/>
      <path class="cls-1" d="M279.5,108.6c-.9,0-1.6-.4-2-1.3.9,0,1.6.3,2,1.3Z"/>
      <path class="cls-1" d="M415,372.1c0-.9.4-1.4,1.2-1.7,0,.8-.4,1.5-1.2,1.7Z"/>
      <path class="cls-1" d="M436.7,389.9c-.1-.1-.2-.2-.3-.4.4-.6.8-1.2,1.1-1.8.3.9-.3,1.5-.8,2.1h0Z"/>
      <path class="cls-1" d="M327.9,490.5c-.2.5-.6.5-.9.3-.4-.2-.8-.5-1.2-.8.8-.5,1.5.1,2.1.4Z"/>
      <path class="cls-1" d="M259.7,51.2c-.9.4-1.5,0-2.2-.6.9-.4,1.6,0,2.2.6Z"/>
      <path class="cls-1" d="M416,497.6c.6-.4,1.2-.7,1.7-1.1.1.1.2.2.4.3-.6.5-1.2,1-2.1.8Z"/>
      <path class="cls-1" d="M100.6,160.8c.1.1.2.2.3.4l-1,1.8c-.4-.9.3-1.5.7-2.1h0Z"/>
      <path class="cls-1" d="M427,517.8c-.6.4-1.2.7-1.8,1.1-.1,0-.2-.2-.4-.3.6-.5,1.2-1,2.1-.8Z"/>
      <path class="cls-1" d="M411.2,499.8c.6-.3,1.2-.7,1.8-1,.1.1.2.2.4.3-.7.4-1.2,1-2.1.7h0Z"/>
      <path class="cls-1" d="M235.4,68.2c.9-.4,1.4.3,2.1.6-.9.5-1.2.5-2.1-.6Z"/>
      <path class="cls-1" d="M109.8,26.8c-.6.4-1.2,1.1-2.1.8.6-.4,1.2-.8,1.8-1.2.1.1.2.2.3.3Z"/>
      <path class="cls-1" d="M154.5,104.1c-.4.7-1,1-1.8.9.5-.4,1-.8,1.4-1.2.1,0,.3.2.4.3h0Z"/>
      <path class="cls-1" d="M306.4,398.7c-.2-.9.4-1.5.9-2.1.2.9-.2,1.6-.9,2.1Z"/>
      <path class="cls-1" d="M440.5,140.5c-.7-.3-.8-.8-.8-1.5.6.3,1,.8.8,1.5Z"/>
      <path class="cls-1" d="M494.1,464.8c.1.9,0,1.1-.8,1.1-.1-.7.3-1,.8-1.1Z"/>
      <path class="cls-1" d="M112.1,226.2c-.6-.5-.6-1.1-.2-1.8,0,.6.1,1.2.2,1.8Z"/>
      <path class="cls-1" d="M314,25.3c-.9.3-1,.2-1.3-.6.4.2.9.4,1.3.6Z"/>
      <path class="cls-1" d="M281.3,59c-.8.3-1.3,0-1.6-.7l1.6.7Z"/>
      <path class="cls-1" d="M42.6,299.5c-.6-.3-.8-.9-.8-1.5.6.3,1,.8.8,1.5Z"/>
      <path class="cls-1" d="M247.8,94.3c-.7.4-1.3,0-1.7-.5.7-.3,1.1.4,1.7.5Z"/>
      <path class="cls-1" d="M265.5,76.1c.8-.3,1.3,0,1.6.7-.7,0-1.2,0-1.6-.7Z"/>
      <path class="cls-1" d="M300.4,43.2c.1,0,.2-.2.4-.3.4.3.8.5,1.2.8-.6.2-1.1,0-1.6-.5Z"/>
      <path class="cls-1" d="M60.5,283.8c.6.4.8.9.8,1.5-.8-.3-1-.8-.8-1.5Z"/>
      <path class="cls-1" d="M113.2,234.6c-.4-.6-.3-1.2,0-1.7.7.6,0,1.2,0,1.7Z"/>
      <path class="cls-1" d="M182.2,164.8c.2-.7.6-1.1,1.4-.9-.2.7-.8.8-1.4.9Z"/>
      <path class="cls-1" d="M268.7,77.4c.7-.3,1.3-.1,1.6.6-.7.2-1.2,0-1.6-.6Z"/>
      <path class="cls-1" d="M319.7,28.5c-.8.2-1.2-.2-1.5-.9.5.3,1,.6,1.5.9Z"/>
      <path class="cls-1" d="M162.7,185.9c-.4-.9,0-1.3.8-1.5-.3.5-.5,1-.8,1.5Z"/>
      <path class="cls-1" d="M276.6,57.2c-.6,0-1.1-.1-1.3-.7.5.2,1.1.3,1.7.4-.1.1-.2.2-.4.3h0Z"/>
      <path class="cls-1" d="M23.1,308.9c.6.3.6.8.6,1.4-.7-.2-.9-.7-.6-1.4Z"/>
      <path class="cls-1" d="M111.8,240c.2-.4.5-.9.8-1.3.2.7-.1,1.1-.8,1.3Z"/>
      <path class="cls-1" d="M36.9,315.5c0-.8.6-1,1.3-.8-.4.3-.8.5-1.3.8Z"/>
      <path class="cls-1" d="M290.3,38.1c.8-.4,1.3,0,1.6.7-.5-.2-1.1-.5-1.6-.7Z"/>
      <path class="cls-1" d="M323.6,30.9l-1.4-1c.7,0,1.1.4,1.4,1Z"/>
      <path class="cls-1" d="M273.5,79.5c.7-.1,1.3,0,1.6.7-.7.2-1.3.1-1.6-.7Z"/>
      <path class="cls-1" d="M291.5,63.9c-.8.2-1.2-.2-1.5-.8.5.3,1,.5,1.5.8Z"/>
      <path class="cls-1" d="M134.5,221.4c0,.6.1,1.2.1,1.8-.6-.5-.6-1.1-.1-1.8Z"/>
      <path class="cls-1" d="M157.4,200.1c-.2-.6-.5-1.2.2-1.7-.1.6.5,1.2-.2,1.7Z"/>
      <path class="cls-1" d="M276.6,80.9c.7,0,1.2,0,1.5.8-.7.2-1.3,0-1.5-.8Z"/>
      <path class="cls-1" d="M294.9,65.8c-.6,0-1.2-.1-1.5-.8.8-.2,1.1.3,1.5.8Z"/>
      <path class="cls-1" d="M134.9,224.5c0,.6.1,1.2.2,1.8-.6-.5-.6-1.1-.2-1.8Z"/>
      <path class="cls-1" d="M55.8,272.7l.6,1.6c-.6-.4-1-.9-.6-1.6Z"/>
      <path class="cls-1" d="M135.4,227.6c.1.6.9,1,.4,1.7-.6-.5-.9-1-.4-1.7Z"/>
      <path class="cls-1" d="M67.5,297.3c.8.1,1,.6.7,1.3-.6-.2-.8-.7-.7-1.3Z"/>
      <path class="cls-1" d="M247.4,117.1c.6.2,1.1.4,1.6.7-.9.6-1.3,0-1.6-.7Z"/>
      <path class="cls-1" d="M265.8,101.1c-.7,0-1.2,0-1.6-.7.8-.3,1.2,0,1.6.7Z"/>
      <path class="cls-1" d="M136.2,231.1c.6.5.7,1.1.4,1.7-.6-.5-.7-1.1-.4-1.7Z"/>
      <path class="cls-1" d="M232.7,136.8c-.6.2-1.2.4-1.7-.3.6,0,1.2-.4,1.7.3Z"/>
      <path class="cls-1" d="M38.6,291.1c-.7-.3-.8-.9-.7-1.6.7.3.9.9.7,1.6Z"/>
      <path class="cls-1" d="M68.9,299.5c.8.1,1,.6.7,1.3-.6-.2-.8-.7-.7-1.3Z"/>
      <path class="cls-1" d="M87.9,288.9c-.8-.2-1.2-.7-.9-1.5l.9,1.5Z"/>
      <path class="cls-1" d="M139.4,184.3c.2.7,0,1.2-.6,1.6-.3-.8,0-1.3.6-1.6Z"/>
      <path class="cls-1" d="M274.9,105.9c-.6,0-1.1-.2-1.3-.8.7-.1,1.1.1,1.3.8Z"/>
      <path class="cls-1" d="M223.5,157.1c.7-.5,1.1.3,1.7.4-.7.5-1.2,0-1.7-.4Z"/>
      <path class="cls-1" d="M157.9,227.5c-.6-.5-.8-1-.4-1.7.5.5.8,1,.4,1.7Z"/>
      <path class="cls-1" d="M244.6,140.8c-.7.2-1.2,0-1.6-.6.7-.3,1.3,0,1.6.6Z"/>
      <path class="cls-1" d="M37.2,288c-.7-.4-.8-1-.6-1.6.7.4.9.9.6,1.6Z"/>
      <path class="cls-1" d="M268.5,53.9c-.8.6-1.3.2-1.7-.5.7-.3,1.2,0,1.7.5Z"/>
      <path class="cls-1" d="M248.7,70.9c.7-.5,1.1.3,1.7.5-.7.4-1.2,0-1.7-.5Z"/>
      <path class="cls-1" d="M36,284.9c-.7-.3-.9-.9-.7-1.6.7.4.8.9.7,1.6Z"/>
      <path class="cls-1" d="M246.5,70.3c.7-.4,1.1.3,1.7.5-.8.6-1.2,0-1.7-.5Z"/>
      <path class="cls-1" d="M171.4,145.8c0,.9-.5.9-1.2.7.2-.6.6-.8,1.2-.7Z"/>
      <path class="cls-1" d="M160.6,235.5c-.7-.3-.8-.9-.7-1.6.7.3.9.9.7,1.6Z"/>
      <path class="cls-1" d="M64.2,333.6c-.7.3-1.2,0-1.6-.6.7-.2,1.2-.2,1.6.6Z"/>
      <path class="cls-1" d="M268.4,127.3c.7-.3,1.2-.1,1.2.7l-1.2-.7Z"/>
      <path class="cls-1" d="M509.5,480.5c-.4-1-.2-1.2.8-1.1,0,.6-.3.9-.8,1.1Z"/>
      <path class="cls-1" d="M66.5,335.5c-.7,0-1-.2-.9-.9.6,0,.9.3.9.9Z"/>
      <path class="cls-1" d="M52.6,263.4c.6.5.8,1,.4,1.7-.6-.5-.7-1-.4-1.7Z"/>
      <path class="cls-1" d="M164.2,242.5c-.6-.2-.8-.7-.7-1.3.7.2,1,.6.7,1.3Z"/>
      <path class="cls-1" d="M148.3,167.7c.2.7.1,1.2-.8,1.1.3-.4.5-.8.8-1.1Z"/>
      <path class="cls-1" d="M242.2,164c.9-.2,1.1-.1,1.3.7-.6,0-1-.1-1.3-.7Z"/>
      <path class="cls-1" d="M297.8,17.5c-.6.2-1.1,0-1.4-.5.9-.3,1.1-.2,1.4.5Z"/>
      <path class="cls-1" d="M124.4,286.3c-.2.4-.5.8-.8,1.2-.2-.7-.1-1.2.8-1.2Z"/>
      <path class="cls-1" d="M112,201.4c-.3-.6-.6-1.2,0-1.8,0,.6.7,1.2,0,1.8Z"/>
      <path class="cls-1" d="M293.7,15.8c-.7,0-1.2,0-1.6-.6.8-.4,1.3-.2,1.6.6Z"/>
      <path class="cls-1" d="M424.9,153.8c.5.2,1,.5,1.5.8-.8.2-1.2-.1-1.5-.8Z"/>
      <path class="cls-1" d="M167.8,247.7c-.7,0-.8-.6-1-1.1l.3-.2c.2.4.5.9.8,1.3h0Z"/>
      <path class="cls-1" d="M50.4,255.9c.6.4.7,1,.4,1.7-.6-.5-.7-1-.4-1.7Z"/>
      <path class="cls-1" d="M158.9,319c-.1-.7.2-1,.9-.9,0,.6-.3.9-.9.9Z"/>
      <path class="cls-1" d="M14.5,289.9c.6.4.9.9.6,1.6-.6-.4-.8-1-.6-1.6Z"/>
      <path class="cls-1" d="M177.9,331.5c-.3.6-.8,1-1.5.9.2-.7.8-.9,1.5-.9Z"/>
      <path class="cls-1" d="M184.6,115.1c.4-.6,1-.8,1.7-.5-.5.5-1,.7-1.7.5Z"/>
      <path class="cls-1" d="M181.9,115.9c.4-.6,1-.8,1.7-.5-.4.6-1,.8-1.7.5Z"/>
      <path class="cls-1" d="M262.1,309.5c.6.2.8.7.7,1.2-.9,0-1-.6-.7-1.2Z"/>
      <path class="cls-1" d="M117.9,176.6c0-.7,0-1.2.7-1.6.2.7,0,1.3-.7,1.6Z"/>
      <path class="cls-1" d="M344.9,241.7c-.2-.6-.5-1.2.2-1.7-.2.6.7,1.2-.2,1.7Z"/>
      <path class="cls-1" d="M433.1,154.9c.4-.6,1-.8,1.7-.5-.4.6-1,.8-1.7.5Z"/>
      <path class="cls-1" d="M439.3,150.6c-.1-.8.2-1.2.9-1.4,0,.6-.1,1.2-.9,1.4Z"/>
      <path class="cls-1" d="M372.2,227.8c.9-.4,1.3,0,1.6.8-.7,0-1.2-.1-1.6-.8Z"/>
      <path class="cls-1" d="M376.5,229.6c.6-.5,1.2-.4,1.7,0-.6.6-1.2.6-1.7,0Z"/>
      <path class="cls-1" d="M382.4,229c.3-.7.8-1,1.6-.8-.3.6-.9.8-1.6.8Z"/>
      <path class="cls-1" d="M387.7,224.5c-.3-.8.1-1.2.8-1.6,0,.7,0,1.2-.8,1.6Z"/>
      <path class="cls-1" d="M262.9,28.4c.7-.3,1.3-.2,1.7.5-.7.3-1.2,0-1.7-.5Z"/>
      <path class="cls-1" d="M361.6,258.5c-.4.8-.9,1.2-1.7.7.6-.2,1.2-.5,1.7-.7Z"/>
      <path class="cls-1" d="M245.5,47.8c-.7.4-1.2.1-1.7-.4.7-.5,1.1.3,1.7.4Z"/>
      <path class="cls-1" d="M119.1,173.4c0-.6,0-1.2.7-1.6.3.8,0,1.3-.7,1.6Z"/>
      <path class="cls-1" d="M408.8,240.7c-.5.5-1,.8-1.7.5.4-.6,1-.8,1.7-.5Z"/>
      <path class="cls-1" d="M526.2,457.3c0-.6.2-1.1.8-1.3,0,.6,0,1.2-.8,1.3Z"/>
      <path class="cls-1" d="M225.9,462.5c.7-.3,1.2,0,1.7.5-.7.3-1.2,0-1.7-.5Z"/>
      <path class="cls-1" d="M291.9,402.6c.5.2,1,.5,1.5.7-.8.3-1.3,0-1.5-.7Z"/>
      <path class="cls-1" d="M170.5,120.3c.5-.2,1.1-.5,1.6-.7-.3.8-.8,1.1-1.6.7Z"/>
      <path class="cls-1" d="M120.5,170.3c0-.6,0-1.2.7-1.6.3.8,0,1.2-.7,1.6Z"/>
      <path class="cls-1" d="M268.7,442c.6,0,1,0,1,.8-.6.1-.8-.3-1-.8Z"/>
      <path class="cls-1" d="M334.6,382.3c.7,0,1,.2,1.2.9-.7.1-1.1-.1-1.2-.9Z"/>
      <path class="cls-1" d="M227,61.4c.8.3,1.1.8.8,1.6-.7-.3-.8-.9-.8-1.6Z"/>
      <path class="cls-1" d="M167.4,121.7c.4-.6.9-.8,1.6-.7-.4.6-.8,1-1.6.7Z"/>
      <path class="cls-1" d="M124,163.2c0-.7.2-1.2.9-1.4-.3.5-.6,1-.9,1.4Z"/>
      <path class="cls-1" d="M155.8,128.5c0-.9.4-1.1,1.2-.7-.4.2-.8.5-1.2.7Z"/>
      <path class="cls-1" d="M227,53.4c-.2.6-.4,1.1-.6,1.7-.4-.8-.2-1.3.6-1.7Z"/>
      <path class="cls-1" d="M46,233.7c0,.6.1,1.2.2,1.8-.6-.5-.5-1.1-.2-1.8Z"/>
      <path class="cls-1" d="M279.4,449.6c.7-.1,1.1.4,1.4.9-.6-.1-1.2-.2-1.4-.9Z"/>
      <path class="cls-1" d="M434.6,296.3c.2.4.5.9.7,1.3-.6-.2-1-.6-.7-1.3Z"/>
      <path class="cls-1" d="M26.3,254.5c-.6-.5-.5-1.1-.3-1.7.8.5.4,1.1.3,1.7Z"/>
      <path class="cls-1" d="M527.9,454.6c0-.6.2-1,.7-1.2.1.6.2,1.2-.7,1.2Z"/>
      <path class="cls-1" d="M271.2,8c-.7.4-1.2.1-1.7-.5.7-.2,1.2,0,1.7.5Z"/>
      <path class="cls-1" d="M285.6,453.3c.8-.3,1.2,0,1.5.8-.6,0-1.2-.1-1.5-.8Z"/>
      <path class="cls-1" d="M304,438c-.8.3-1.3,0-1.6-.7.7,0,1.2,0,1.6.7Z"/>
      <path class="cls-1" d="M184.6,92.7c-.5.7-1.1.4-1.8.2.5-.8,1.1-.3,1.8-.2Z"/>
      <path class="cls-1" d="M455.1,288.6c-.7-.3-.8-.9-.8-1.5.7.3,1,.8.8,1.5Z"/>
      <path class="cls-1" d="M438.7,304.7c.2.5.4,1.1.6,1.6-.8-.3-1-.9-.6-1.6Z"/>
      <path class="cls-1" d="M530.1,450.6c0-.6,0-1.1.7-1.3.2.7,0,1.1-.7,1.3Z"/>
      <path class="cls-1" d="M45.7,229.7c.7.6.1,1.2,0,1.8-.6-.6-.5-1.2,0-1.8Z"/>
      <path class="cls-1" d="M94.1,178.9c.3.7.3,1.3-.4,1.7-.3-.7-.2-1.2.4-1.7Z"/>
      <path class="cls-1" d="M456.9,292.2c-.6-.3-.8-.9-.7-1.6.6.4,1,.8.7,1.6Z"/>
      <path class="cls-1" d="M25.2,248.7c-.6-.5-.9-1-.4-1.7,0,.6.9,1,.4,1.7Z"/>
      <path class="cls-1" d="M177.1,94.6c-.4.7-1,.9-1.7.5.4-.6,1-.7,1.7-.5Z"/>
      <path class="cls-1" d="M311.5,440.9c-.7.4-1.2,0-1.7-.6.7-.2,1.2,0,1.7.6Z"/>
      <path class="cls-1" d="M239.4,23.8c.6,0,1.2.1,1.8.2-.6.4-1.2.4-1.8-.2Z"/>
      <path class="cls-1" d="M400.8,353.8c.3.8-.1,1.2-.8,1.5.3-.5.5-1,.8-1.5Z"/>
      <path class="cls-1" d="M230.6,524.4c.6-.1,1,0,1.1.7-.6.1-1,0-1.1-.7Z"/>
      <path class="cls-1" d="M388.5,367.4c0,.8-.5,1-1.2.7.4-.2.8-.5,1.2-.7Z"/>
      <path class="cls-1" d="M441.8,313c.2.4.4.9.5,1.3-.1.1-.2.3-.4.4-.3-.5-.6-1.1-.2-1.7h0Z"/>
      <path class="cls-1" d="M297.6,458.9c.7-.2,1.3,0,1.6.7-.7.2-1.2,0-1.6-.7Z"/>
      <path class="cls-1" d="M442,314.8c.1-.1.2-.3.4-.4.1.6.2,1.1.4,1.7-.2-.4-.5-.9-.7-1.3h0Z"/>
      <path class="cls-1" d="M233.1,526c.7,0,1.2.1,1.4.9-.7,0-1.2-.2-1.4-.9Z"/>
      <path class="cls-1" d="M443,317c.7.4.8,1,.4,1.7-.6-.5-.7-1-.4-1.7Z"/>
      <path class="cls-1" d="M511,249.9c.7.3.9.8.8,1.6-.8-.3-1-.8-.8-1.6Z"/>
      <path class="cls-1" d="M236.8,527.9c-.1.1-.2.2-.4.3-.4-.2-1,0-1-.8.6-.2,1,0,1.3.5Z"/>
      <path class="cls-1" d="M461.8,304.1c-.6-.4-1-.9-.6-1.7.2.5.4,1.1.6,1.7Z"/>
      <path class="cls-1" d="M444,320.5c.7.5.4,1.1.2,1.8-.7-.5-.5-1.1-.2-1.8Z"/>
      <path class="cls-1" d="M479.2,286.1c.8.3.9.9.7,1.6-.6-.3-.8-.9-.7-1.6Z"/>
      <path class="cls-1" d="M529.4,238.2c-.3-.5-.6-.9-.9-1.4.6.3,1.1.7.9,1.4Z"/>
      <path class="cls-1" d="M444.4,322.8c.5.5.7,1,.4,1.7-.6-.5-.7-1-.4-1.7Z"/>
      <path class="cls-1" d="M497.3,273c-.6-.4-1-.8-.7-1.5.6.3.7.9.7,1.5Z"/>
      <path class="cls-1" d="M480.5,289.2c.7.3,1,.9.7,1.6-.6-.4-.8-1-.7-1.6Z"/>
      <path class="cls-1" d="M328.4,445.3c-.6.4-1.2.4-1.8-.2.6,0,1.2.2,1.8.2Z"/>
      <path class="cls-1" d="M241.5,530.9c.7,0,1.2,0,1.5.8-.8.2-1.2,0-1.5-.8Z"/>
      <path class="cls-1" d="M499.5,278c-.8-.3-1.1-.8-.7-1.6.2.5.5,1.1.7,1.6Z"/>
      <path class="cls-1" d="M533.5,245.8c-.8-.2-1.2-.7-.8-1.6.3.5.5,1,.8,1.6Z"/>
      <path class="cls-1" d="M194.5,63c-.4-.8-.1-1.3.6-1.6.1.7,0,1.2-.6,1.6Z"/>
      <path class="cls-1" d="M465.2,315.6c-.6-.5-.8-1-.4-1.7.6.5.7,1,.4,1.7Z"/>
      <path class="cls-1" d="M422.6,358.4c0-.6,0-1.2.6-1.6.3.7,0,1.3-.6,1.6Z"/>
      <path class="cls-1" d="M276.6,57.2c.1,0,.2-.2.4-.3.4.2.8.5,1.3.7-.7.4-1.1,0-1.6-.4Z"/>
      <path class="cls-1" d="M147.7,107.8c-.2.6-.6.8-1.2.7,0-.8.5-1,1.2-.7Z"/>
      <path class="cls-1" d="M391.6,390.2c.4-.7.9-.8,1.6-.6-.4.7-.9.9-1.6.6Z"/>
      <path class="cls-1" d="M145.1,109.6c-.2.6-.6.8-1.2.7.2-.8.3-.9,1.2-.7Z"/>
      <path class="cls-1" d="M446.2,335.1c.2.6.9,1,.4,1.7-.4-.5-.8-1-.4-1.7Z"/>
      <path class="cls-1" d="M266.4,519c-.5-.2-1.1-.5-1.6-.7.8-.3,1.3-.1,1.6.7Z"/>
      <path class="cls-1" d="M284.5,498.3c.8.2,1.2.7.8,1.5-.3-.5-.5-1-.8-1.5Z"/>
      <path class="cls-1" d="M183.3,69.5c.5-.6,1-.8,1.7-.4-.5.5-1.1.7-1.7.4Z"/>
      <path class="cls-1" d="M465,513c.6,0,1,.1,1.3.7-.7.3-1.2.1-1.3-.7Z"/>
      <path class="cls-1" d="M518.5,264.5c.6.3,1,.8.7,1.6-.7-.3-.8-.9-.7-1.6Z"/>
      <path class="cls-1" d="M419.1,365.2c.1.1.2.2.3.4-.3.4-.5.8-.8,1.2-.3-.7,0-1.1.5-1.5Z"/>
      <path class="cls-1" d="M502,284.2c-.7-.4-.9-.9-.6-1.6.6.4.8,1,.6,1.6Z"/>
      <path class="cls-1" d="M27.9,107.3c.4.9,0,1.3-.8,1.5.3-.5.5-1,.8-1.5Z"/>
      <path class="cls-1" d="M484.5,300.2c.8.4.6,1,.4,1.7-.7-.4-.5-1.1-.4-1.7Z"/>
      <path class="cls-1" d="M402.1,384.5c0-.7.4-.9,1-.8,0,.6-.5.8-1,.8Z"/>
      <path class="cls-1" d="M139.3,113.5c-.1.6-.5.9-1.2.8,0-.8.5-1,1.2-.8Z"/>
      <path class="cls-1" d="M118.3,133.4c.2.7-.2,1-.8,1-.2-.7.1-1,.8-1Z"/>
      <path class="cls-1" d="M271.4,521c-.7.2-1.3,0-1.6-.6.7-.3,1.3-.2,1.6.6Z"/>
      <path class="cls-1" d="M69.8,182.4c-.3-.6-.4-1.2.2-1.7-.1.6.6,1.2-.2,1.7Z"/>
      <path class="cls-1" d="M467.2,325.8c-.6-.5-.4-1.2-.1-1.8.7.5.3,1.2.1,1.8Z"/>
      <path class="cls-1" d="M486,305.1c.2.6.9,1,.5,1.7-.5-.5-.9-1-.5-1.7Z"/>
      <path class="cls-1" d="M307.6,486.5c-.7.4-1.2.1-1.7-.5.7-.3,1.2-.1,1.7.5Z"/>
      <path class="cls-1" d="M2.7,247c0,.6.2,1.2.2,1.8-.7-.5-.6-1.1-.2-1.8Z"/>
      <path class="cls-1" d="M504.4,291.3c.1-.1.2-.2.3-.4.3.5.7,1,.3,1.7-.2-.4-.4-.9-.6-1.3Z"/>
      <path class="cls-1" d="M275.8,522.8c-.7.3-1.3.1-1.7-.5.7-.2,1.3,0,1.7.5Z"/>
      <path class="cls-1" d="M505.7,295.3l-.3-1.7c.6.2.6.8.7,1.3-.1.1-.2.3-.3.4h0Z"/>
      <path class="cls-1" d="M540.9,261.2c-.7-.4-.8-.9-.6-1.6.7.4.9.9.6,1.6Z"/>
      <path class="cls-1" d="M505.7,295.3c.1-.1.2-.3.3-.4.3.5.7,1,.3,1.7l-.6-1.3Z"/>
      <path class="cls-1" d="M280.2,524.5c-.7.2-1.3.4-1.7-.5.7-.2,1.3-.2,1.7.5Z"/>
      <path class="cls-1" d="M109.8,26.8c-.1-.1-.2-.2-.3-.3.4-.2.9-.3,1.3-.5,0,.6-.5.7-1,.8Z"/>
      <path class="cls-1" d="M299.3,506.8c.7-.4,1.2-.1,1.7.5-.7.3-1.2,0-1.7-.5Z"/>
      <path class="cls-1" d="M543.5,267.4c-.7-.5-.8-1-.4-1.7.3.5.8,1,.4,1.7Z"/>
      <path class="cls-1" d="M489.6,321c.7.5.5,1.1.2,1.8-.6-.5-.4-1.1-.2-1.8Z"/>
      <path class="cls-1" d="M289.5,527.6c-.7.3-1.2,0-1.7-.5.7-.3,1.2,0,1.7.5Z"/>
      <path class="cls-1" d="M71.5,175.3c-.2-.6-.3-1.2.3-1.7,0,.6.5,1.3-.3,1.7Z"/>
      <path class="cls-1" d="M350.1,468.5c.5-.5,1.1-.5,1.7,0-.5.7-1.1.8-1.7,0Z"/>
      <path class="cls-1" d="M509.9,310.8c-.5-.5-.9-1-.4-1.7,0,.6.9,1,.4,1.7Z"/>
      <path class="cls-1" d="M167.8,73.5c.4-.6,1-.8,1.7-.5-.5.5-1,.7-1.7.5Z"/>
      <path class="cls-1" d="M439.6,382.9c.3.8,0,1.3-.7,1.6,0-.6,0-1.2.7-1.6Z"/>
      <path class="cls-1" d="M76.5,159.8c-.4-.8,0-1.3.7-1.6-.2.5-.4,1.1-.7,1.6Z"/>
      <path class="cls-1" d="M77.7,156.7c-.3-.7,0-1.3.7-1.6,0,.7,0,1.2-.7,1.6Z"/>
      <path class="cls-1" d="M460.4,507.6c.6.3.7.8.6,1.3-.8-.2-.9-.7-.6-1.3Z"/>
      <path class="cls-1" d="M124.4,96.2c.3-.3.6-.5,1-.8-.3.3-.6.5-1,.8Z"/>
      <path class="cls-1" d="M317.4,511c.6,0,1.2.1,1.8.2-.6.4-1.2.4-1.8-.2Z"/>
      <path class="cls-1" d="M132.1,88.2c-.3-.7,0-1.2.5-1.7.3.7,0,1.2-.5,1.7Z"/>
      <path class="cls-1" d="M433.6,395.4c.2.7,0,1.3-.8,1.5-.2-.8,0-1.3.8-1.5Z"/>
      <path class="cls-1" d="M467.5,362.5c-.4-.6-.5-1.2.2-1.8l-.2,1.8Z"/>
      <path class="cls-1" d="M394.2,435.8c0,.6-.1,1-.7,1.3-.3-.7-.2-1.2.7-1.3Z"/>
      <path class="cls-1" d="M399.5,431.1c-.2.6-.6.8-1.2.7,0-.8.5-1,1.2-.7Z"/>
      <path class="cls-1" d="M432.2,397.8c0,.6-.1,1.1-.8,1.3-.2-.7,0-1.1.8-1.3Z"/>
      <path class="cls-1" d="M120.4,99.3c.3-.3.6-.6.9-.8-.3.3-.6.6-.9.8Z"/>
      <path class="cls-1" d="M153.1,55.6c-.2.6-.7.8-1.3.7.1-.8.6-.9,1.3-.7Z"/>
      <path class="cls-1" d="M385.8,448.8c-1-.2-1-.3-.6-1.2.2.4.4.8.6,1.2Z"/>
      <path class="cls-1" d="M549.7,286c-.6-.4-.9-1-.5-1.7.5.5.7,1,.5,1.7Z"/>
      <path class="cls-1" d="M369.6,466.1c.5-.5,1-.7,1.7-.4-.5.5-1,.7-1.7.4Z"/>
      <path class="cls-1" d="M371.8,465.7c.5-.5,1-.7,1.7-.4-.5.5-1,.8-1.7.4Z"/>
      <path class="cls-1" d="M287.8,550.1c.7-.4,1.1.4,1.7.5-.8.5-1.2,0-1.7-.5Z"/>
      <path class="cls-1" d="M393.4,445.3c.6.3,1,.8.8,1.5-.7-.3-.9-.9-.8-1.5Z"/>
      <path class="cls-1" d="M327.5,512.4c.6,0,1.2,0,1.8.1-.6.4-1.2.5-1.8-.1Z"/>
      <path class="cls-1" d="M310.7,532.9c-.7.4-1.2.2-1.7-.4.7-.5,1.1.3,1.7.4Z"/>
      <path class="cls-1" d="M551.4,292.2c-.6-.5-.8-1-.5-1.7.6.5.7,1,.5,1.7Z"/>
      <path class="cls-1" d="M23.9,185c-.4-.6-.3-1.2.3-1.7.4.7.3,1.2-.3,1.7Z"/>
      <path class="cls-1" d="M359.8,490.7c-.5.6-1.1.5-1.8.2.6,0,1.2-.1,1.8-.2Z"/>
      <path class="cls-1" d="M459.8,391.1c-.2-.7,0-1.3.7-1.6.2.7,0,1.2-.7,1.6Z"/>
      <path class="cls-1" d="M553,299.3c-.7-.5-.5-1.1-.3-1.7.7.5.4,1.1.3,1.7Z"/>
      <path class="cls-1" d="M534.2,317.9c0,.6.2,1.2.2,1.8-.7-.5-.6-1.1-.2-1.8Z"/>
      <path class="cls-1" d="M424,542.9c.3-.9,1-.6,1.7-.5-.4.8-1.1.5-1.7.5Z"/>
      <path class="cls-1" d="M553.5,301.5c-.7-.5-.5-1.1-.2-1.8.7.5.3,1.1.2,1.8Z"/>
      <path class="cls-1" d="M60.2,142.2c.3.8,0,1.2-.7,1.6,0-.6,0-1.2.7-1.6Z"/>
      <path class="cls-1" d="M543,423.9c-.3-.8,0-1.2.6-1.6.2.7-.1,1.2-.6,1.6Z"/>
      <path class="cls-1" d="M381,486.9c-.5.6-1,.8-1.7.4.5-.5,1-.7,1.7-.4Z"/>
      <path class="cls-1" d="M66.6,130c0,.6-.2,1.2-.9,1.5,0-.7.3-1.1.9-1.5Z"/>
      <path class="cls-1" d="M385.9,485.7c-.4.7-1,.8-1.7.4.5-.6,1-.7,1.7-.4Z"/>
      <path class="cls-1" d="M27.9,165.1c-.4-.7-.1-1.2.5-1.7.3.7.1,1.2-.5,1.7Z"/>
      <path class="cls-1" d="M506.3,365.2c.3-.6.8-.9,1.5-.8-.2.8-.8,1-1.5.8Z"/>
      <path class="cls-1" d="M556.5,320.5c-.6-.5-.6-1.1-.2-1.8,0,.6.1,1.2.2,1.8Z"/>
      <path class="cls-1" d="M161.2,28.9c.4-.6,1-.8,1.7-.4-.5.6-1,.7-1.7.4Z"/>
      <path class="cls-1" d="M157.1,30c.4-.6,1-.8,1.7-.4-.5.7-1.1.8-1.7.4Z"/>
      <path class="cls-1" d="M29.6,158.9c-.3-.7-.2-1.3.4-1.7.3.7.2,1.3-.4,1.7Z"/>
      <path class="cls-1" d="M418.6,471.8c-.2.8-.4.9-1.3.6.2-.6.7-.8,1.3-.6Z"/>
      <path class="cls-1" d="M472.4,417.5c.3.7,0,1.1-.7,1.3,0-.6,0-1.1.7-1.3Z"/>
      <path class="cls-1" d="M471.2,419.7c.1.7,0,1.1-.8,1.3,0-.6.2-1.1.8-1.3Z"/>
      <path class="cls-1" d="M469.9,421.9c.2.7,0,1.1-.8,1.2,0-.6.2-1.1.8-1.2Z"/>
      <path class="cls-1" d="M32.1,151c-.2-.7,0-1.3.5-1.7.4.7.2,1.3-.5,1.7Z"/>
      <path class="cls-1" d="M35.2,142.2c.2-.4.4-.9.6-1.3.4.7.1,1.1-.6,1.3Z"/>
      <path class="cls-1" d="M384.6,508.6c.5-.5,1-.7,1.7-.4-.5.6-1,.8-1.7.4Z"/>
      <path class="cls-1" d="M419.6,544.3c.5-.3,1-.7,1.7-.3-.4.2-.9.4-1.3.6-.1-.1-.2-.2-.4-.3h0Z"/>
      <path class="cls-1" d="M130.3,40.5c.3-.7.8-1,1.6-.7-.5.2-1.1.5-1.6.7Z"/>
      <path class="cls-1" d="M161.1,6.3c-.5.6-1,.7-1.7.4.4-.6,1-.8,1.7-.4Z"/>
      <path class="cls-1" d="M434.5,461.1c0,.9-.5.9-1.2.9.1-.6.5-.9,1.2-.9Z"/>
      <path class="cls-1" d="M460.7,435.1c.1.7-.3,1-.8,1.2-.2-.7,0-1.2.8-1.2Z"/>
      <path class="cls-1" d="M388.1,507.7c.5-.5,1-.7,1.7-.5-.5.7-1.1.9-1.7.5Z"/>
      <path class="cls-1" d="M502.1,395.3c-.7-.2-1-.6-.7-1.3.7.2.8.7.7,1.3Z"/>
      <path class="cls-1" d="M419.6,544.3c.1.1.2.2.4.3-.5.2-1.1.3-1.6.5.4-.3.8-.5,1.3-.8Z"/>
      <path class="cls-1" d="M390.8,506.9c.5-.6,1-.8,1.7-.4-.5.6-1,.7-1.7.4Z"/>
      <path class="cls-1" d="M121.7,44.8c.1-.8.6-.9,1.3-.7-.2.6-.7.7-1.3.7Z"/>
      <path class="cls-1" d="M546,415.2c.1.1.2.3.3.4-.2.4-.4.9-.6,1.3-.3-.6,0-1.2.3-1.7h0Z"/>
      <path class="cls-1" d="M351,558.1c.6,0,1-1,1.7-.3-.5.4-1.1.8-1.7.3Z"/>
      <path class="cls-1" d="M500,411c0-.6,0-1.2.7-1.6.3.8,0,1.2-.7,1.6Z"/>
      <path class="cls-1" d="M45.4,120.8c-.3-.8,0-1.3.7-1.6,0,.7,0,1.2-.7,1.6Z"/>
      <path class="cls-1" d="M413.3,499.1c-.1-.1-.2-.2-.4-.3.5-.2,1.1-.3,1.6-.5-.2.6-.7.7-1.2.8h0Z"/>
      <path class="cls-1" d="M7.5,156.8c.3.7.1,1.2-.5,1.7-.3-.7,0-1.2.5-1.7Z"/>
      <path class="cls-1" d="M498.1,415.9c-.1-.1-.2-.2-.3-.3.3-.4.5-.8.8-1.2.3.6-.1,1.1-.5,1.5h0Z"/>
      <path class="cls-1" d="M153.2,8.3c.1.1.3.2.4.3-.5.3-1.1.7-1.7.2.4-.2.9-.4,1.3-.6Z"/>
      <path class="cls-1" d="M418.1,496.9c-.1-.1-.2-.2-.4-.3.4-.5.9-.7,1.6-.5-.4.3-.8.5-1.2.8Z"/>
      <path class="cls-1" d="M532.2,384.3c.2.7.2,1.3-.5,1.7-.3-.6-.2-1.2.5-1.7Z"/>
      <path class="cls-1" d="M429.8,490.4c.5-1,.5-1,1.5-.8-.5.3-1,.6-1.5.8Z"/>
      <path class="cls-1" d="M489.9,430.9c-.4-.9,0-1.3.8-1.5-.3.5-.5,1-.8,1.5Z"/>
      <path class="cls-1" d="M437.2,485.9c0-.8.5-1,1.2-.7-.2.6-.7.7-1.2.7Z"/>
      <path class="cls-1" d="M385.6,540.6c-1.1-.5-1.1-.5-.8-1.5.6.3.7.9.8,1.5Z"/>
      <path class="cls-1" d="M442.5,482.3c.2-.6.5-1,1.2-.9-.2.6-.6.8-1.2.9Z"/>
      <path class="cls-1" d="M24.4,113.6c.3.8,0,1.3-.8,1.6,0-.7.1-1.2.8-1.6Z"/>
      <path class="cls-1" d="M9.2,150.6c.3.7.2,1.3-.4,1.7-.2-.7-.1-1.2.4-1.7Z"/>
      <path class="cls-1" d="M408.9,525.6c-.5.4-.9.8-1.6.4.4-.6.9-.8,1.6-.4Z"/>
      <path class="cls-1" d="M14.1,136c.4.7.2,1.3-.4,1.7.1-.6.3-1.1.4-1.7Z"/>
      <path class="cls-1" d="M555,381.1c-.3-.6-.5-1.2.2-1.7,0,.6.5,1.2-.2,1.7Z"/>
      <path class="cls-1" d="M131.9,15.9c-.4.6-.9.8-1.6.7.4-.7.9-1,1.6-.7Z"/>
      <path class="cls-1" d="M128.7,17.2c-.4.6-.9.8-1.6.7.3-.7.8-1,1.6-.7Z"/>
      <path class="cls-1" d="M554.2,385.5c-.4-.6-.3-1.2.3-1.7.4.7.2,1.2-.3,1.7Z"/>
      <path class="cls-1" d="M419,521.4c-.4.6-1,.8-1.6.6.4-.7.9-.9,1.6-.6Z"/>
      <path class="cls-1" d="M422.1,520c-.4.7-.9.8-1.6.7.3-.7.9-.9,1.6-.7Z"/>
      <path class="cls-1" d="M402.4,539.9c.6.2.8.7.7,1.3-.8-.1-.9-.7-.7-1.3Z"/>
      <path class="cls-1" d="M424.9,518.6c.1.1.2.2.4.3-.5.2-1,.3-1.5.5.4-.3.8-.5,1.2-.8Z"/>
      <path class="cls-1" d="M17.9,127.3c0,.6,0,1.2-.7,1.6-.2-.7,0-1.3.7-1.6Z"/>
      <path class="cls-1" d="M550.5,401.4c-.2-.6-.5-1.2.3-1.7-.1.6.5,1.3-.3,1.7Z"/>
      <path class="cls-1" d="M20.1,122.4c.1.7,0,1.2-.8,1.6-.2-.7,0-1.3.8-1.6Z"/>
      <path class="cls-1" d="M548.7,407.6c-.2-.7,0-1.2.5-1.7.3.7,0,1.2-.5,1.7Z"/>
      <path class="cls-1" d="M410.3,546.3c.7-.5,1.1.2,1.7.4-.7.4-1.2.1-1.7-.4Z"/>
      <path class="cls-1" d="M463.4,495.3c0,.7-.2,1-.9.9,0-.6.3-.9.9-.9Z"/>
      <path class="cls-1" d="M461.4,497.5c.2.8,0,1.3-.8,1.6-.2-.7,0-1.3.8-1.6Z"/>
      <path class="cls-1" d="M483.2,296.3c.8.4.6,1,.5,1.7-.8-.4-.5-1.1-.5-1.7Z"/>
      <path class="cls-1" d="M465.8,318.4c-.2,0-.4-.1-.6-.2.1-.2.3-.5.4-.7,0,.3,0,.6.1.9h0Z"/>
      <path class="cls-1" d="M167.1,246.5l-.3.2c-.2-.4-.5-.7-.7-1.1.3.3.6.6.9.9Z"/>
      <path class="cls-1" d="M555.5,377.1c-.3-.3-.3-.6.1-.9,0,.3,0,.6-.1.9Z"/>
      <path class="cls-1" d="M502.9,403.2c-.3-.4-.3-.6.2-.9,0,.3-.1.6-.2.9Z"/>
      <path class="cls-1" d="M557.8,339.6c-.4-.3-.4-.6,0-.9,0,.3,0,.6,0,.9Z"/>
      <path class="cls-1" d="M166.8,5.1c-.2.5-.5.5-.9.1.3,0,.6,0,.9-.1Z"/>
      <path class="cls-1" d="M169.1,26.9c.3,0,.6-.1.9-.1-.2.4-.5.5-.9.1Z"/>
      <path class="cls-1" d="M24.8,178.8c-.3-.4-.2-.6.1-.9v.9Z"/>
      <path class="cls-1" d="M49.4,173.1c0,.3-.1.6-.2.9-.3-.4-.3-.7.2-.9Z"/>
      <path class="cls-1" d="M360.7,445.6c-.2.4-.5.4-.9.1.3,0,.6,0,.9-.1Z"/>
      <path class="cls-1" d="M181.9,69.8c.3,0,.6,0,.9-.1-.2.4-.5.5-.9.1Z"/>
      <path class="cls-1" d="M188.9,68c.3,0,.5-.1.8-.2-.2.5-.4.5-.8.2Z"/>
      <path class="cls-1" d="M66.6,209.8c-.4-.3-.4-.6,0-.9,0,.3,0,.6,0,.9Z"/>
      <path class="cls-1" d="M66.5,212.5c-.4-.3-.4-.6,0-.9v.9Z"/>
      <path class="cls-1" d="M399.8,250.6c0,.3,0,.6,0,.9-.4-.3-.5-.5,0-.9Z"/>
    </g>
  </g>
</svg>